<svg width="500" height="500" viewBox="0 0 500 500" fill="none" xmlns="http://www.w3.org/2000/svg">
<path d="M238.401 445.048H45.3017C42.1547 445.048 39.5938 442.488 39.5938 439.34V60.6611C39.5938 57.5141 42.1547 54.9531 45.3017 54.9531H238.401C241.547 54.9531 244.108 57.5141 244.108 60.6611V439.34C244.108 442.488 241.547 445.048 238.401 445.048ZM45.3017 55.2041C42.2917 55.2041 39.8438 57.6521 39.8438 60.6621V439.341C39.8438 442.351 42.2917 444.799 45.3017 444.799H238.401C241.41 444.799 243.858 442.351 243.858 439.341V60.6611C243.858 57.6521 241.41 55.2031 238.401 55.2031L45.3017 55.2041Z" fill="#EBEBEB"/>
<path d="M454.697 445.048H261.598C258.452 445.048 255.891 442.488 255.891 439.34V60.6611C255.891 57.5141 258.452 54.9531 261.598 54.9531H454.697C457.845 54.9531 460.405 57.5141 460.405 60.6611V439.34C460.405 442.488 457.844 445.048 454.697 445.048ZM261.598 55.2041C258.589 55.2041 256.141 57.6521 256.141 60.6621V439.341C256.141 442.351 258.589 444.799 261.598 444.799H454.697C457.707 444.799 460.155 442.351 460.155 439.341V60.6611C460.155 57.6521 457.707 55.2031 454.697 55.2031L261.598 55.2041Z" fill="#EBEBEB"/>
<path d="M113.053 168.242L114.67 171.518L118.285 172.044L115.669 174.594L116.287 178.195L113.053 176.495L109.819 178.195L110.437 174.594L107.82 172.044L111.436 171.518L113.053 168.242Z" fill="#EBEBEB"/>
<path d="M436.702 322.477L438.319 325.753L441.934 326.279L439.318 328.829L439.936 332.43L436.702 330.73L433.468 332.43L434.085 328.829L431.469 326.279L435.085 325.753L436.702 322.477Z" fill="#F5F5F5"/>
<path d="M372.6 417.562L374.217 420.839L377.833 421.363L375.216 423.914L375.834 427.516L372.6 425.815L369.366 427.516L369.984 423.914L367.367 421.363L370.983 420.839L372.6 417.562Z" fill="#F5F5F5"/>
<path d="M225.948 110.15L226.548 111.366L227.89 111.561C228.225 111.61 228.359 112.021 228.116 112.258L227.145 113.205L227.374 114.542C227.431 114.876 227.081 115.13 226.782 114.973L225.581 114.342L224.38 114.973C224.08 115.131 223.73 114.876 223.788 114.542L224.017 113.205L223.046 112.258C222.804 112.022 222.937 111.61 223.272 111.561L224.614 111.366L225.214 110.15C225.365 109.846 225.798 109.846 225.948 110.15Z" fill="#EBEBEB"/>
<path d="M60.7757 402.001L61.3757 403.217L62.7177 403.412C63.0527 403.461 63.1867 403.872 62.9437 404.109L61.9727 405.056L62.2017 406.393C62.2587 406.727 61.9087 406.981 61.6097 406.824L60.4087 406.193L59.2077 406.824C58.9077 406.981 58.5577 406.727 58.6157 406.393L58.8447 405.056L57.8737 404.109C57.6317 403.873 57.7647 403.461 58.0997 403.412L59.4417 403.217L60.0417 402.001C60.1927 401.697 60.6257 401.697 60.7757 402.001Z" fill="#F5F5F5"/>
<path d="M87.7533 97.2983L88.3533 98.5143L89.6953 98.7093C90.0303 98.7583 90.1643 99.1693 89.9213 99.4063L88.9503 100.353L89.1793 101.69C89.2363 102.024 88.8863 102.278 88.5863 102.12L87.3853 101.489L86.1853 102.12C85.8853 102.278 85.5353 102.023 85.5923 101.69L85.8213 100.353L84.8503 99.4063C84.6083 99.1703 84.7413 98.7583 85.0763 98.7093L86.4183 98.5143L87.0183 97.2983C87.1703 96.9943 87.6033 96.9943 87.7533 97.2983Z" fill="#EBEBEB"/>
<path d="M86.1306 338.319C86.1306 339.052 85.5366 339.646 84.8036 339.646C84.0706 339.646 83.4766 339.052 83.4766 338.319C83.4766 337.586 84.0706 336.992 84.8036 336.992C85.5356 336.992 86.1306 337.586 86.1306 338.319Z" fill="#EBEBEB"/>
<path d="M275.67 171.889C275.67 172.622 275.076 173.216 274.343 173.216C273.61 173.216 273.016 172.622 273.016 171.889C273.016 171.156 273.61 170.562 274.343 170.562C275.076 170.562 275.67 171.156 275.67 171.889Z" fill="#EBEBEB"/>
<path d="M206.709 98.3973C206.709 99.1303 206.115 99.7243 205.382 99.7243C204.649 99.7243 204.055 99.1303 204.055 98.3973C204.055 97.6643 204.649 97.0703 205.382 97.0703C206.115 97.0703 206.709 97.6653 206.709 98.3973Z" fill="#F5F5F5"/>
<path d="M208.841 422.496C212.79 421.564 215.236 417.606 214.303 413.657C213.371 409.707 209.413 407.262 205.464 408.194C201.514 409.127 199.069 413.084 200.001 417.034C200.934 420.983 204.891 423.429 208.841 422.496Z" fill="#F0F0F0"/>
<path d="M204.597 411.086C203.037 411.086 201.587 411.586 200.407 412.446C200.017 413.346 199.797 414.336 199.797 415.376C199.797 419.436 203.087 422.716 207.147 422.716C208.517 422.716 209.807 422.336 210.907 421.677C210.897 421.667 210.897 421.667 210.907 421.667C211.457 420.647 211.767 419.487 211.767 418.247C211.767 414.296 208.557 411.086 204.597 411.086Z" fill="#E6E6E6"/>
<path d="M147.683 287.648H86.8281V260.173L147.683 187.836H176.798V261.731H191.888V287.648H176.798V310.12H147.683V287.648ZM147.683 261.731V223.893L115.527 261.731H147.683Z" fill="#005AFF"/>
<path d="M202.305 249.511C202.305 226.657 206.418 210.665 214.648 201.533C222.877 192.402 235.41 187.836 252.252 187.836C260.343 187.836 266.987 188.835 272.181 190.83C277.375 192.826 281.613 195.423 284.893 198.621C288.173 201.82 290.757 205.182 292.643 208.709C294.53 212.235 296.047 216.35 297.195 221.053C299.436 230.02 300.557 239.37 300.557 249.102C300.557 270.917 296.866 286.884 289.485 296.998C282.103 307.114 269.391 312.17 251.348 312.17C241.232 312.17 233.058 310.556 226.826 307.331C220.592 304.106 215.479 299.376 211.489 293.143C208.589 288.715 206.334 282.659 204.723 274.977C203.11 267.295 202.305 258.807 202.305 249.511ZM235.439 249.593C235.439 264.903 236.792 275.36 239.498 280.965C242.205 286.569 246.128 289.371 251.267 289.371C254.657 289.371 257.596 288.182 260.084 285.803C262.572 283.425 264.403 279.667 265.58 274.527C266.755 269.388 267.343 261.377 267.343 250.496C267.343 234.532 265.99 223.801 263.284 218.306C260.577 212.81 256.518 210.063 251.104 210.063C245.581 210.063 241.59 212.866 239.129 218.47C236.669 224.074 235.439 234.449 235.439 249.593Z" fill="#005AFF"/>
<path d="M371.746 287.648H310.891V260.173L371.746 187.836H400.861V261.731H415.951V287.648H400.861V310.12H371.746V287.648ZM371.746 261.731V223.893L339.591 261.731H371.746Z" fill="#005AFF"/>
<g opacity="0.3">
<path d="M200.949 145.615C200.949 146.645 200.114 147.48 199.084 147.48C198.054 147.48 197.219 146.645 197.219 145.615C197.219 144.585 198.054 143.75 199.084 143.75C200.114 143.75 200.949 144.585 200.949 145.615Z" fill="#005AFF"/>
<path d="M72.9636 217.451C73.6943 217.451 74.2866 216.858 74.2866 216.128C74.2866 215.397 73.6943 214.805 72.9636 214.805C72.233 214.805 71.6406 215.397 71.6406 216.128C71.6406 216.858 72.233 217.451 72.9636 217.451Z" fill="#005AFF"/>
<path d="M291.049 410.224C292.095 410.224 292.942 409.376 292.942 408.331C292.942 407.285 292.095 406.438 291.049 406.438C290.004 406.438 289.156 407.285 289.156 408.331C289.156 409.376 290.004 410.224 291.049 410.224Z" fill="#005AFF"/>
<path d="M336.495 333.326C337.226 333.326 337.818 332.733 337.818 332.003C337.818 331.272 337.226 330.68 336.495 330.68C335.764 330.68 335.172 331.272 335.172 332.003C335.172 332.733 335.764 333.326 336.495 333.326Z" fill="#005AFF"/>
<path d="M424.169 95.6199C424.169 96.3509 423.577 96.9429 422.846 96.9429C422.115 96.9429 421.523 96.3509 421.523 95.6199C421.523 94.8889 422.115 94.2969 422.846 94.2969C423.577 94.2969 424.169 94.8889 424.169 95.6199Z" fill="#005AFF"/>
<path d="M172.755 68.9636C172.755 69.6946 172.163 70.2866 171.432 70.2866C170.701 70.2866 170.109 69.6946 170.109 68.9636C170.109 68.2326 170.701 67.6406 171.432 67.6406C172.163 67.6406 172.755 68.2326 172.755 68.9636Z" fill="#005AFF"/>
<path d="M277.69 138.263C278.421 138.263 279.013 137.671 279.013 136.94C279.013 136.21 278.421 135.617 277.69 135.617C276.96 135.617 276.367 136.21 276.367 136.94C276.367 137.671 276.96 138.263 277.69 138.263Z" fill="#005AFF"/>
</g>
<path d="M141.23 138.273C153.331 138.273 163.14 128.464 163.14 116.363C163.14 104.263 153.331 94.4531 141.23 94.4531C129.13 94.4531 119.32 104.263 119.32 116.363C119.32 128.464 129.13 138.273 141.23 138.273Z" fill="#005AFF"/>
<path opacity="0.7" d="M141.23 138.273C153.331 138.273 163.14 128.464 163.14 116.363C163.14 104.263 153.331 94.4531 141.23 94.4531C129.13 94.4531 119.32 104.263 119.32 116.363C119.32 128.464 129.13 138.273 141.23 138.273Z" fill="white"/>
<path opacity="0.2" d="M133.677 99.8359C130.606 99.8359 127.691 100.471 125.036 101.606C121.486 105.499 119.32 110.684 119.32 116.368C119.32 128.465 129.127 138.272 141.224 138.272C144.305 138.272 147.241 137.637 149.907 136.492C149.907 136.492 149.907 136.492 149.907 136.482C153.436 132.588 155.591 127.424 155.591 121.751C155.592 109.643 145.785 99.8359 133.677 99.8359Z" fill="#005AFF"/>
<path opacity="0.2" d="M131.498 105.628C131.498 106.734 130.601 107.631 129.495 107.631C128.389 107.631 127.492 106.734 127.492 105.628C127.492 104.522 128.389 103.625 129.495 103.625C130.601 103.625 131.498 104.522 131.498 105.628Z" fill="#005AFF"/>
<path opacity="0.2" d="M155.061 103.62C155.061 104.726 154.164 105.623 153.058 105.623C151.952 105.623 151.055 104.726 151.055 103.62C151.055 102.514 151.952 101.617 153.058 101.617C154.164 101.618 155.061 102.514 155.061 103.62Z" fill="#005AFF"/>
<path opacity="0.2" d="M151.056 117.903C151.056 119.713 149.589 121.181 147.778 121.181C145.968 121.181 144.5 119.713 144.5 117.903C144.5 116.093 145.967 114.625 147.778 114.625C149.588 114.625 151.056 116.093 151.056 117.903Z" fill="#005AFF"/>
<path opacity="0.2" d="M140.637 127.248C140.637 129.668 138.675 131.629 136.256 131.629C133.836 131.629 131.875 129.667 131.875 127.248C131.875 124.828 133.837 122.867 136.256 122.867C138.675 122.867 140.637 124.829 140.637 127.248Z" fill="#005AFF"/>
<path d="M400.902 380.704C403.342 370.37 396.943 360.015 386.609 357.575C376.276 355.135 365.921 361.534 363.481 371.867C361.041 382.201 367.44 392.556 377.773 394.996C388.107 397.436 398.462 391.037 400.902 380.704Z" fill="#005AFF"/>
<path opacity="0.3" d="M400.902 380.704C403.342 370.37 396.943 360.015 386.609 357.575C376.276 355.135 365.921 361.534 363.481 371.867C361.041 382.201 367.44 392.556 377.773 394.996C388.107 397.436 398.462 391.037 400.902 380.704Z" fill="white"/>
<path opacity="0.4" d="M394.329 361.335C392.58 360.804 390.718 360.523 388.792 360.523C378.173 360.523 369.562 369.133 369.562 379.751C369.562 385.769 372.321 391.13 376.652 394.659C378.401 395.19 380.264 395.471 382.191 395.471C392.81 395.471 401.419 386.861 401.419 376.243C401.419 370.226 398.66 364.854 394.329 361.335Z" fill="#005AFF"/>
<path d="M363.827 381.948C343.293 391.61 358.611 399.057 387.539 388.661C414.323 379.035 424.506 366.892 400.591 370.655C401.825 375.763 368.279 388.834 363.827 381.948Z" fill="#005AFF"/>
<path opacity="0.2" d="M394.094 187.828C367.204 205.998 332.394 229.958 322.784 287.638H320.734C330.084 230.658 363.624 206.068 390.524 187.828H394.094Z" fill="black"/>
<path d="M255.018 368.268C238.048 368.269 221.209 360.606 213.032 348.082C207.979 340.343 202.112 324.132 219.587 302.504L221.143 303.762C208.781 319.061 206.495 334.412 214.707 346.989C224.701 362.298 248.303 369.995 268.437 364.517C289.065 358.904 301.589 340.96 302.798 315.289C306.933 227.482 353.582 200.434 387.644 180.684C408.806 168.414 424.096 159.548 420.735 140.846C420.269 138.251 419.234 136.458 417.572 135.365C413.219 132.497 404.719 134.479 394.878 136.773C375.572 141.27 349.132 147.43 333.381 120.639L335.105 119.625C350.111 145.148 374.682 139.425 394.424 134.824C404.714 132.428 413.601 130.357 418.672 133.693C420.817 135.105 422.136 137.329 422.704 140.492C426.313 160.574 409.691 170.212 388.647 182.414C354.983 201.933 308.879 228.665 304.795 315.382C303.543 341.978 290.482 360.59 268.961 366.446C264.426 367.68 259.715 368.267 255.018 368.268Z" fill="#005AFF"/>
<path opacity="0.2" d="M255.018 368.268C238.048 368.269 221.209 360.606 213.032 348.082C207.979 340.343 202.112 324.132 219.587 302.504L221.143 303.762C208.781 319.061 206.495 334.412 214.707 346.989C224.701 362.298 248.303 369.995 268.437 364.517C289.065 358.904 301.589 340.96 302.798 315.289C306.933 227.482 353.582 200.434 387.644 180.684C408.806 168.414 424.096 159.548 420.735 140.846C420.269 138.251 419.234 136.458 417.572 135.365C413.219 132.497 404.719 134.479 394.878 136.773C375.572 141.27 349.132 147.43 333.381 120.639L335.105 119.625C350.111 145.148 374.682 139.425 394.424 134.824C404.714 132.428 413.601 130.357 418.672 133.693C420.817 135.105 422.136 137.329 422.704 140.492C426.313 160.574 409.691 170.212 388.647 182.414C354.983 201.933 308.879 228.665 304.795 315.382C303.543 341.978 290.482 360.59 268.961 366.446C264.426 367.68 259.715 368.267 255.018 368.268Z" fill="white"/>
<path d="M312.758 96.9503C319.613 96.8253 326.34 99.0843 326.34 99.0843C326.34 99.0843 337.305 117.855 338.642 122.151C338.181 126.391 331.027 133.342 331.027 133.342L312.758 96.9503Z" fill="#005AFF"/>
<path opacity="0.3" d="M312.758 96.9503C319.613 96.8253 326.34 99.0843 326.34 99.0843C326.34 99.0843 337.305 117.855 338.642 122.151C338.181 126.391 331.027 133.342 331.027 133.342L312.758 96.9503Z" fill="white"/>
<path d="M345.34 188.137C341.204 182.889 337.143 177.543 333.781 171.752C332.941 170.305 332.145 168.831 331.392 167.337C330.964 166.488 330.55 165.632 330.148 164.77C329.797 164.017 329.022 162.908 328.944 162.086C327.743 149.414 332.081 140.086 327.916 129.914L311.445 136.351C311.445 136.351 312.846 154.473 316.043 165.314C318.027 172.04 322.518 177.863 326.846 183.251C328.2 184.937 329.505 186.661 330.856 188.349C332.135 189.947 333.568 191.413 334.85 193.003C336.797 195.416 337.445 197.719 335.965 200.564C335.886 200.716 335.803 200.867 335.718 201.017C335.298 201.758 337.264 202.598 338.499 201.038C340.541 198.457 340.22 198.616 341.961 196.415C343.018 195.079 344.232 193.636 345.28 192.382C346.304 191.159 346.327 189.389 345.34 188.137Z" fill="#005AFF"/>
<path opacity="0.7" d="M345.34 188.137C341.204 182.889 337.143 177.543 333.781 171.752C332.941 170.305 332.145 168.831 331.392 167.337C330.964 166.488 330.55 165.632 330.148 164.77C329.797 164.017 329.022 162.908 328.944 162.086C327.743 149.414 332.081 140.086 327.916 129.914L311.445 136.351C311.445 136.351 312.846 154.473 316.043 165.314C318.027 172.04 322.518 177.863 326.846 183.251C328.2 184.937 329.505 186.661 330.856 188.349C332.135 189.947 333.568 191.413 334.85 193.003C336.797 195.416 337.445 197.719 335.965 200.564C335.886 200.716 335.803 200.867 335.718 201.017C335.298 201.758 337.264 202.598 338.499 201.038C340.541 198.457 340.22 198.616 341.961 196.415C343.018 195.079 344.232 193.636 345.28 192.382C346.304 191.159 346.327 189.389 345.34 188.137Z" fill="white"/>
<path opacity="0.3" d="M341.312 182.922C339.107 185.587 334.624 189.044 332.648 190.445C333.078 190.924 333.504 191.413 333.931 191.902C337.999 189.245 341.215 185.798 342.435 184.398C342.058 183.913 341.685 183.417 341.312 182.922Z" fill="#005AFF"/>
<path opacity="0.3" d="M345.334 188.137C345.296 188.085 345.256 188.043 345.218 187.992C344.524 188.715 344.035 189.868 343.953 191.162C343.887 192.056 344.037 192.874 344.33 193.513C344.663 193.127 344.974 192.745 345.279 192.382C346.307 191.158 346.321 189.389 345.334 188.137Z" fill="#005AFF"/>
<path d="M308.846 108.953C307.123 111.459 305.092 113.929 302.471 116.147C301.17 117.262 299.685 118.271 298.054 119.127C297.231 119.547 296.366 119.911 295.471 120.212L294.796 120.429L294.578 120.497C294.42 120.545 294.261 120.588 294.101 120.626C293.799 120.694 293.496 120.74 293.228 120.762C292.145 120.844 291.36 120.69 290.713 120.529C289.436 120.181 288.583 119.716 287.776 119.265C286.981 118.806 286.283 118.336 285.622 117.851C284.32 116.86 283.142 115.865 282.044 114.803C279.834 112.693 277.874 110.505 276.054 108.068C275.224 106.957 275.452 105.384 276.563 104.555C277.42 103.914 278.553 103.904 279.406 104.443L279.482 104.492C281.842 105.99 284.223 107.57 286.546 108.984C287.719 109.676 288.865 110.372 289.992 110.914C290.546 111.194 291.089 111.449 291.579 111.63C292.056 111.816 292.532 111.922 292.656 111.897C292.708 111.894 292.646 111.823 292.278 111.836C292.189 111.841 292.063 111.853 291.935 111.881C291.861 111.895 291.789 111.914 291.717 111.937C291.648 111.96 291.746 111.918 291.752 111.912L292.083 111.743C292.523 111.519 292.945 111.239 293.373 110.954C294.229 110.375 295.044 109.64 295.876 108.834C297.522 107.199 299.106 105.164 300.778 103.048L300.8 103.019C302.512 100.851 305.658 100.482 307.826 102.194C309.902 103.833 310.319 106.802 308.846 108.953Z" fill="#005AFF"/>
<path opacity="0.7" d="M308.846 108.953C307.123 111.459 305.092 113.929 302.471 116.147C301.17 117.262 299.685 118.271 298.054 119.127C297.231 119.547 296.366 119.911 295.471 120.212L294.796 120.429L294.578 120.497C294.42 120.545 294.261 120.588 294.101 120.626C293.799 120.694 293.496 120.74 293.228 120.762C292.145 120.844 291.36 120.69 290.713 120.529C289.436 120.181 288.583 119.716 287.776 119.265C286.981 118.806 286.283 118.336 285.622 117.851C284.32 116.86 283.142 115.865 282.044 114.803C279.834 112.693 277.874 110.505 276.054 108.068C275.224 106.957 275.452 105.384 276.563 104.555C277.42 103.914 278.553 103.904 279.406 104.443L279.482 104.492C281.842 105.99 284.223 107.57 286.546 108.984C287.719 109.676 288.865 110.372 289.992 110.914C290.546 111.194 291.089 111.449 291.579 111.63C292.056 111.816 292.532 111.922 292.656 111.897C292.708 111.894 292.646 111.823 292.278 111.836C292.189 111.841 292.063 111.853 291.935 111.881C291.861 111.895 291.789 111.914 291.717 111.937C291.648 111.96 291.746 111.918 291.752 111.912L292.083 111.743C292.523 111.519 292.945 111.239 293.373 110.954C294.229 110.375 295.044 109.64 295.876 108.834C297.522 107.199 299.106 105.164 300.778 103.048L300.8 103.019C302.512 100.851 305.658 100.482 307.826 102.194C309.902 103.833 310.319 106.802 308.846 108.953Z" fill="white"/>
<path d="M272.288 102.416L273.46 104.382C273.46 104.382 274.355 106.998 276.146 107.482L281 105.91L280.757 105.502C280.759 105.503 280.762 105.503 280.764 105.503C280.142 104.556 280.209 102.73 280.428 101.211C280.646 99.6922 279.858 99.6382 279.276 100.016C278.94 100.234 278.702 100.927 278.429 101.674C278.19 101.345 277.934 101.028 277.645 100.74L276.162 99.2632C275.522 98.6262 274.497 98.5972 273.822 99.1972L272.62 100.265C272.008 100.809 271.869 101.712 272.288 102.416Z" fill="#005AFF"/>
<path opacity="0.7" d="M272.288 102.416L273.46 104.382C273.46 104.382 274.355 106.998 276.146 107.482L281 105.91L280.757 105.502C280.759 105.503 280.762 105.503 280.764 105.503C280.142 104.556 280.209 102.73 280.428 101.211C280.646 99.6922 279.858 99.6382 279.276 100.016C278.94 100.234 278.702 100.927 278.429 101.674C278.19 101.345 277.934 101.028 277.645 100.74L276.162 99.2632C275.522 98.6262 274.497 98.5972 273.822 99.1972L272.62 100.265C272.008 100.809 271.869 101.712 272.288 102.416Z" fill="white"/>
<path d="M317.674 95.2226C313.025 96.3506 306.638 99.0036 302.325 101.691C300.796 102.643 300.033 104.451 300.393 106.216C302.317 115.656 306.707 128.301 311.446 136.345L333.557 127.198C333.709 123.298 328.341 110.678 322.873 98.4806C321.891 96.2866 320.01 94.6566 317.674 95.2226Z" fill="#005AFF"/>
<path opacity="0.8" d="M317.674 95.2226C313.025 96.3506 306.638 99.0036 302.325 101.691C300.796 102.643 300.033 104.451 300.393 106.216C302.317 115.656 306.707 128.301 311.446 136.345L333.557 127.198C333.709 123.298 328.341 110.678 322.873 98.4806C321.891 96.2866 320.01 94.6566 317.674 95.2226Z" fill="white"/>
<path opacity="0.3" d="M326.302 106.213L321.914 104.742C322.896 107.309 326.447 110.563 328.944 112.474C328.121 110.468 327.229 108.371 326.302 106.213Z" fill="#005AFF"/>
<path d="M316.22 85.3218C314.395 81.8408 310.446 80.0888 305.704 80.4848C301.706 80.8188 298.16 84.9008 298.581 87.1068C299.001 89.3128 302.366 90.2468 302.975 91.0128L300.202 93.0228C298.822 94.0238 298.552 95.9698 299.606 97.3098C300.773 98.7918 302.309 100.34 303.204 101.433C310.868 101.234 316.536 98.3098 318.578 95.4968C317.844 91.9178 318.035 88.7838 316.22 85.3218Z" fill="#005AFF"/>
<path opacity="0.8" d="M316.22 85.3218C314.395 81.8408 310.446 80.0888 305.704 80.4848C301.706 80.8188 298.16 84.9008 298.581 87.1068C299.001 89.3128 302.366 90.2468 302.975 91.0128L300.202 93.0228C298.822 94.0238 298.552 95.9698 299.606 97.3098C300.773 98.7918 302.309 100.34 303.204 101.433C310.868 101.234 316.536 98.3098 318.578 95.4968C317.844 91.9178 318.035 88.7838 316.22 85.3218Z" fill="white"/>
<path d="M312.464 87.4745C313.986 91.3705 312.063 95.7626 308.167 97.2846C304.271 98.8066 299.879 96.8835 298.357 92.9875C296.835 89.0925 298.758 84.6995 302.654 83.1775C306.549 81.6556 310.941 83.5795 312.464 87.4745Z" fill="#263238"/>
<path d="M377.389 177.601C377.278 174.312 377.136 174.641 377.04 171.837C376.982 170.134 376.975 168.248 376.964 166.614C376.953 165.019 375.826 163.654 374.263 163.337C372.938 163.068 371.609 162.812 370.286 162.53C368.56 162.162 366.854 161.766 365.159 161.274C363.845 160.892 362.542 160.471 361.254 160.007C359.874 159.51 358.513 158.965 357.165 158.387C355.589 157.711 354.032 156.991 352.487 156.249C350.762 155.421 349.05 154.565 347.344 153.698C340.763 142.803 340.621 135.624 333.558 127.203L318.398 134.061C318.398 134.061 329.537 153.826 337.123 162.206C341.49 167.029 348.341 169.203 354.451 170.781C358.859 171.919 363.329 172.79 367.804 173.612C369.544 173.931 371.435 174.055 372.932 175.094C374.111 175.912 374.721 177.189 375.069 178.546C375.14 178.823 375.2 179.103 375.254 179.385C375.414 180.222 377.457 179.59 377.389 177.601Z" fill="#005AFF"/>
<path opacity="0.8" d="M377.389 177.601C377.278 174.312 377.136 174.641 377.04 171.837C376.982 170.134 376.975 168.248 376.964 166.614C376.953 165.019 375.826 163.654 374.263 163.337C372.938 163.068 371.609 162.812 370.286 162.53C368.56 162.162 366.854 161.766 365.159 161.274C363.845 160.892 362.542 160.471 361.254 160.007C359.874 159.51 358.513 158.965 357.165 158.387C355.589 157.711 354.032 156.991 352.487 156.249C350.762 155.421 349.05 154.565 347.344 153.698C340.763 142.803 340.621 135.624 333.558 127.203L318.398 134.061C318.398 134.061 329.537 153.826 337.123 162.206C341.49 167.029 348.341 169.203 354.451 170.781C358.859 171.919 363.329 172.79 367.804 173.612C369.544 173.931 371.435 174.055 372.932 175.094C374.111 175.912 374.721 177.189 375.069 178.546C375.14 178.823 375.2 179.103 375.254 179.385C375.414 180.222 377.457 179.59 377.389 177.601Z" fill="white"/>
<path opacity="0.3" d="M369.7 162.408C369.103 162.277 368.497 162.143 367.894 162C367.941 165.453 366.322 171.417 365.727 173.224C366.358 173.343 366.998 173.465 367.629 173.585C369.384 168.84 369.66 163.817 369.7 162.408Z" fill="#005AFF"/>
<path opacity="0.3" d="M376.961 166.615C376.95 165.016 375.827 163.654 374.267 163.334C373.953 163.27 373.629 163.202 373.312 163.148C373.378 164.088 373.963 165.179 374.941 166.045C375.582 166.623 376.307 167.007 376.973 167.188C376.963 166.989 376.962 166.802 376.961 166.615Z" fill="#005AFF"/>
<path d="M311.045 87.5438C311.45 89.0598 309.753 90.6538 308.395 89.3428C307.293 88.2788 305.633 86.4968 304.278 85.6498C302.886 84.7788 304.742 83.2628 306.928 83.8508C308.969 84.4008 310.64 86.0268 311.045 87.5438Z" fill="white"/>
<path d="M311.164 135.861C310.459 136.121 311.747 137.317 311.747 137.317C311.747 137.317 325.717 132.53 334.242 127.601C334.314 126.57 333.564 126.023 333.564 126.023C333.564 126.023 323.192 131.427 311.164 135.861Z" fill="#005AFF"/>
<path opacity="0.5" d="M311.164 135.861C310.459 136.121 311.747 137.317 311.747 137.317C311.747 137.317 325.717 132.53 334.242 127.601C334.314 126.57 333.564 126.023 333.564 126.023C333.564 126.023 323.192 131.427 311.164 135.861Z" fill="white"/>
<path d="M321.46 94.5653C324.218 95.9583 326.814 97.4333 329.407 99.0663C330.698 99.8793 331.983 100.714 333.249 101.615C334.525 102.498 335.784 103.429 337.047 104.477L337.521 104.865L338.112 105.398C338.532 105.768 338.84 106.109 339.149 106.449C339.473 106.8 339.74 107.138 340.003 107.475C340.276 107.814 340.535 108.151 340.768 108.483C341.757 109.811 342.563 111.162 343.354 112.502C344.891 115.219 346.222 117.932 347.32 120.851C347.81 122.153 347.152 123.605 345.849 124.096C344.871 124.464 343.807 124.184 343.131 123.47L343.082 123.416C341.073 121.288 339.146 119.043 337.207 116.958C335.31 114.879 333.295 112.745 331.67 111.817C329.4 110.401 326.872 108.995 324.36 107.61L316.797 103.412L316.778 103.402C314.363 102.062 313.492 99.0183 314.832 96.6033C316.141 94.2483 319.077 93.3653 321.46 94.5653Z" fill="#005AFF"/>
<path opacity="0.8" d="M321.46 94.5653C324.218 95.9583 326.814 97.4333 329.407 99.0663C330.698 99.8793 331.983 100.714 333.249 101.615C334.525 102.498 335.784 103.429 337.047 104.477L337.521 104.865L338.112 105.398C338.532 105.768 338.84 106.109 339.149 106.449C339.473 106.8 339.74 107.138 340.003 107.475C340.276 107.814 340.535 108.151 340.768 108.483C341.757 109.811 342.563 111.162 343.354 112.502C344.891 115.219 346.222 117.932 347.32 120.851C347.81 122.153 347.152 123.605 345.849 124.096C344.871 124.464 343.807 124.184 343.131 123.47L343.082 123.416C341.073 121.288 339.146 119.043 337.207 116.958C335.31 114.879 333.295 112.745 331.67 111.817C329.4 110.401 326.872 108.995 324.36 107.61L316.797 103.412L316.778 103.402C314.363 102.062 313.492 99.0183 314.832 96.6033C316.141 94.2483 319.077 93.3653 321.46 94.5653Z" fill="white"/>
<path d="M349.732 125.741L348.883 123.616C348.883 123.616 348.409 120.892 346.716 120.133L341.676 120.925L341.852 121.366C341.85 121.365 341.848 121.364 341.845 121.364C342.311 122.396 341.958 124.19 341.504 125.655C341.05 127.121 341.82 127.298 342.454 127.016C342.82 126.853 343.164 126.206 343.55 125.511C343.735 125.874 343.938 126.227 344.178 126.556L345.411 128.247C345.943 128.976 346.951 129.166 347.712 128.679L349.066 127.812C349.757 127.371 350.037 126.502 349.732 125.741Z" fill="#005AFF"/>
<path opacity="0.8" d="M349.732 125.741L348.883 123.616C348.883 123.616 348.409 120.892 346.716 120.133L341.676 120.925L341.852 121.366C341.85 121.365 341.848 121.364 341.845 121.364C342.311 122.396 341.958 124.19 341.504 125.655C341.05 127.121 341.82 127.298 342.454 127.016C342.82 126.853 343.164 126.206 343.55 125.511C343.735 125.874 343.938 126.227 344.178 126.556L345.411 128.247C345.943 128.976 346.951 129.166 347.712 128.679L349.066 127.812C349.757 127.371 350.037 126.502 349.732 125.741Z" fill="white"/>
<path opacity="0.3" d="M317.235 106.062L316.016 106.161L308.531 124.245C308.971 124.275 309.375 124.238 309.749 124.146C309.749 124.146 319.509 120.509 322.463 119.176C320.475 115.056 317.235 106.062 317.235 106.062Z" fill="#005AFF"/>
<path d="M303.57 110.809C303.987 114.066 306.429 120.988 308.535 124.247C312.19 122.987 318.295 120.61 321.249 119.277C319.26 115.158 317.166 109.482 316.02 106.164C312.871 106.373 306.008 108.958 303.57 110.809Z" fill="white"/>
<path opacity="0.3" d="M311.003 114.718C310.595 116.083 309.157 116.858 307.793 116.449C306.429 116.04 305.653 114.603 306.062 113.239C306.471 111.874 307.908 111.099 309.272 111.508C310.636 111.916 311.411 113.353 311.003 114.718Z" fill="#005AFF"/>
<path opacity="0.6" d="M312.913 111.275C312.779 111.722 312.308 111.976 311.861 111.842C311.414 111.708 311.16 111.237 311.293 110.79C311.427 110.343 311.898 110.089 312.345 110.223C312.793 110.356 313.047 110.827 312.913 111.275Z" fill="#005AFF"/>
<path opacity="0.6" d="M315.147 110.408C315.013 110.855 314.542 111.109 314.095 110.975C313.648 110.841 313.394 110.37 313.528 109.923C313.662 109.476 314.133 109.222 314.58 109.356C315.027 109.49 315.281 109.961 315.147 110.408Z" fill="#005AFF"/>
<path opacity="0.5" d="M318.29 118.194L309.043 121.848L308.484 120.03L317.731 116.375L318.29 118.194Z" fill="#005AFF"/>
<path opacity="0.2" d="M267.255 257.171C267.055 264.711 266.495 270.501 265.575 274.521C264.395 279.661 262.565 283.421 260.075 285.801C257.595 288.181 254.655 289.371 251.265 289.371C246.125 289.371 242.195 286.571 239.495 280.961C239.055 280.051 238.655 279.011 238.285 277.851C232.575 282.761 227.255 288.121 222.365 293.881L217.055 300.141C219.925 303.051 223.185 305.441 226.825 307.331C233.055 310.551 241.225 312.171 251.345 312.171C253.125 312.171 254.845 312.121 256.515 312.021C262.635 302.961 267.705 293.221 271.615 283.001L286.465 244.281L267.255 257.171Z" fill="black"/>
<path d="M133.391 309.961C138.988 315.558 150.893 327.463 150.893 327.463L199.904 281.296C183.038 274.884 150.162 293.191 133.391 309.961Z" fill="#263238"/>
<path d="M194.424 370.996C188.827 365.399 176.922 353.494 176.922 353.494L223.089 304.484C229.501 321.349 211.195 354.225 194.424 370.996Z" fill="#263238"/>
<path d="M261.401 260.7L280.492 223.891L243.683 242.982C231.857 249.116 220.939 256.859 211.239 265.99L148.492 325.06L179.322 355.89L238.392 293.143C247.524 283.444 255.267 272.526 261.401 260.7Z" fill="#005AFF"/>
<path opacity="0.6" d="M261.401 260.7L280.492 223.891L243.683 242.982C231.857 249.116 220.939 256.859 211.239 265.99L148.492 325.06L179.322 355.89L238.392 293.143C247.524 283.444 255.267 272.526 261.401 260.7Z" fill="white"/>
<path d="M222.196 295.079C229.32 295.079 235.095 289.304 235.095 282.18C235.095 275.056 229.32 269.281 222.196 269.281C215.072 269.281 209.297 275.056 209.297 282.18C209.297 289.304 215.072 295.079 222.196 295.079Z" fill="white"/>
<path d="M222.199 290.468C226.775 290.468 230.484 286.759 230.484 282.183C230.484 277.608 226.775 273.898 222.199 273.898C217.623 273.898 213.914 277.608 213.914 282.183C213.914 286.759 217.623 290.468 222.199 290.468Z" fill="#005AFF"/>
<path opacity="0.3" d="M189.745 344.82L159.562 314.639L184.273 291.375L213.008 320.109L189.745 344.82Z" fill="#005AFF"/>
<path d="M140.22 337.617C117.615 339.456 110.127 353.923 107.573 373.156C106.271 382.965 105.693 392.889 97.4565 398.631C95.1705 400.225 96.3055 403.778 99.0915 403.691C129.43 402.744 143.581 387.887 145.358 381.666C144.746 385.599 143.854 388.701 142.866 391.141C141.85 393.648 144.603 395.968 146.895 394.532C155.412 389.196 166.094 379.377 166.804 363.454C160.507 354.604 140.22 337.617 140.22 337.617Z" fill="#005AFF"/>
<path opacity="0.2" d="M140.22 337.617C117.615 339.456 110.127 353.923 107.573 373.156C106.271 382.965 105.693 392.889 97.4565 398.631C95.1705 400.225 96.3055 403.778 99.0915 403.691C129.43 402.744 143.581 387.887 145.358 381.666C144.746 385.599 143.854 388.701 142.866 391.141C141.85 393.648 144.603 395.968 146.895 394.532C155.412 389.196 166.094 379.377 166.804 363.454C160.507 354.604 140.22 337.617 140.22 337.617Z" fill="white"/>
<path d="M170.274 370.304L134.078 334.108L153.361 329.938L174.446 351.021L170.274 370.304Z" fill="#005AFF"/>
</svg>
