<svg width="250" height="167" viewBox="0 0 250 167" fill="none" xmlns="http://www.w3.org/2000/svg">
<path d="M73.296 40.7551L35.8945 65.7734L72.7331 120.846L110.135 95.8274L73.296 40.7551Z" fill="#F5F5F5"/>
<path d="M90.8103 93.2252L90.3856 95.8522L71.793 93.1739L72.2173 90.5469L90.8103 93.2252Z" fill="#E0E0E0"/>
<path d="M81.4466 83.8516L84.1146 84.2362L81.1566 102.542L78.4883 102.158L81.4466 83.8516Z" fill="#E0E0E0"/>
<path d="M64.3193 60.5864C64.3459 60.6264 60.5976 63.1801 55.9486 66.2897C51.2979 69.4004 47.5073 71.8891 47.4806 71.8491C47.4539 71.8094 51.2013 69.2561 55.8523 66.1454C60.5013 63.0357 64.2926 60.5467 64.3193 60.5864Z" fill="#E0E0E0"/>
<path d="M78.0741 57.1331C78.1008 57.1731 71.8678 61.3888 64.1545 66.5478C56.4381 71.7088 50.1635 75.8591 50.1368 75.8191C50.1101 75.7794 56.3418 71.5644 64.0578 66.4034C71.7711 61.2444 78.0475 57.0934 78.0741 57.1331Z" fill="#E0E0E0"/>
<path d="M80.832 61.2581C80.8586 61.2981 74.6256 65.5138 66.9123 70.6728C59.1959 75.8338 52.9213 79.9841 52.8946 79.9441C52.8679 79.9041 59.0996 75.6894 66.8156 70.5284C74.5293 65.3694 80.8053 61.2184 80.832 61.2581Z" fill="#E0E0E0"/>
<path d="M83.5898 65.3753C83.6164 65.4153 77.3834 69.631 69.6701 74.79C61.9538 79.951 55.6791 84.1013 55.6524 84.0613C55.6258 84.0216 61.8574 79.8066 69.5734 74.6456C77.2871 69.4863 83.5631 65.3353 83.5898 65.3753Z" fill="#E0E0E0"/>
<path d="M86.3437 69.5003C86.3703 69.5403 80.1373 73.7556 72.424 78.9149C64.7077 84.0759 58.433 88.2263 58.4063 88.1863C58.3797 88.1463 64.6113 83.9316 72.3273 78.7706C80.0407 73.6116 86.317 69.4606 86.3437 69.5003Z" fill="#E0E0E0"/>
<path d="M198.36 77.653L166.949 98.6641L197.887 144.915L229.298 123.904L198.36 77.653Z" fill="#F5F5F5"/>
<path d="M213.065 121.718L212.709 123.924L197.094 121.675L197.45 119.469L213.065 121.718Z" fill="#E0E0E0"/>
<path d="M205.203 113.852L207.444 114.175L204.959 129.548L202.719 129.226L205.203 113.852Z" fill="#E0E0E0"/>
<path d="M190.822 94.3131C190.848 94.3531 187.704 96.5027 183.799 99.1144C179.893 101.727 176.707 103.812 176.68 103.772C176.653 103.732 179.797 101.582 183.703 98.9701C187.607 96.3587 190.795 94.2734 190.822 94.3131Z" fill="#E0E0E0"/>
<path d="M202.373 91.4144C202.399 91.4544 197.168 94.9997 190.69 99.3327C184.21 103.667 178.937 107.147 178.91 107.107C178.884 107.067 184.114 103.523 190.594 99.1884C197.072 94.8557 202.346 91.3747 202.373 91.4144Z" fill="#E0E0E0"/>
<path d="M204.689 94.8753C204.716 94.9153 199.485 98.461 193.007 102.794C186.526 107.128 181.253 110.608 181.227 110.568C181.2 110.528 186.43 106.984 192.91 102.649C199.388 98.3163 204.662 94.8353 204.689 94.8753Z" fill="#E0E0E0"/>
<path d="M207.002 98.3363C207.028 98.3763 201.797 101.922 195.319 106.255C188.839 110.589 183.566 114.069 183.539 114.029C183.512 113.99 188.743 110.445 195.223 106.11C201.701 101.778 206.975 98.2966 207.002 98.3363Z" fill="#E0E0E0"/>
<path d="M209.318 101.797C209.345 101.837 204.114 105.383 197.636 109.716C191.155 114.05 185.882 117.53 185.856 117.49C185.829 117.451 191.059 113.906 197.539 109.571C204.017 105.239 209.291 101.757 209.318 101.797Z" fill="#E0E0E0"/>
<path d="M148.663 42.7748L114.391 24.4453L87.4011 74.9104L121.674 93.2399L148.663 42.7748Z" fill="#F5F5F5"/>
<path d="M115.807 77.4533L113.633 78.198L108.113 62.94L110.288 62.1953L115.807 77.4533Z" fill="#E0E0E0"/>
<path d="M119.141 66.5078L119.934 68.6975L104.78 73.8871L103.988 71.6975L119.141 66.5078Z" fill="#E0E0E0"/>
<path d="M129.911 43.9955C129.884 44.0459 126.408 42.2389 122.147 39.9605C117.886 37.6812 114.454 35.7935 114.481 35.7432C114.508 35.6932 117.983 37.4995 122.245 39.7785C126.505 42.0572 129.938 43.9455 129.911 43.9955Z" fill="#E0E0E0"/>
<path d="M138.135 53.0748C138.108 53.1251 132.355 50.1004 125.287 46.3204C118.217 42.5388 112.508 39.4338 112.535 39.3834C112.562 39.3334 118.314 42.3571 125.385 46.1388C132.453 49.9188 138.162 53.0244 138.135 53.0748Z" fill="#E0E0E0"/>
<path d="M136.112 56.8485C136.085 56.8989 130.332 53.8742 123.264 50.0939C116.193 46.3122 110.485 43.2072 110.512 43.1569C110.539 43.1069 116.29 46.1305 123.361 49.9122C130.429 53.6922 136.138 56.7982 136.112 56.8485Z" fill="#E0E0E0"/>
<path d="M134.092 60.6298C134.065 60.6801 128.312 57.6555 121.244 53.8751C114.174 50.0938 108.465 46.9885 108.492 46.9381C108.519 46.8878 114.271 49.9118 121.342 53.6934C128.41 57.4738 134.119 60.5798 134.092 60.6298Z" fill="#E0E0E0"/>
<path d="M132.073 64.4032C132.046 64.4535 126.293 61.4289 119.225 57.6485C112.154 53.8672 106.446 50.7619 106.473 50.7115C106.5 50.6615 112.251 53.6852 119.322 57.4669C126.39 61.2472 132.099 64.3532 132.073 64.4032Z" fill="#E0E0E0"/>
<path opacity="0.2" d="M132.252 0H131.391V14.661H132.252V0Z" fill="black"/>
<path d="M111.746 32.3928H151.9C151.9 32.3928 148.192 14.6484 131.519 14.6484C116.688 14.6481 111.746 32.3928 111.746 32.3928Z" fill="#005AFF"/>
<path d="M132.252 0H131.391V14.661H132.252V0Z" fill="#005AFF"/>
<path d="M221.222 146.61C221.222 146.658 178.138 146.697 125.004 146.697C71.8517 146.697 28.7773 146.658 28.7773 146.61C28.7773 146.562 71.8517 146.523 125.004 146.523C178.138 146.523 221.222 146.562 221.222 146.61Z" fill="#263238"/>
<path d="M39.4276 125.734C40.5546 125.774 41.6126 126.386 42.3559 127.234C43.0992 128.082 43.5549 129.148 43.8466 130.238C44.4106 132.346 44.0639 134.833 43.4629 136.931C41.1809 136.115 39.7739 133.682 39.1376 132.402C38.1316 130.38 37.5419 126.115 39.4276 125.734Z" fill="#005AFF"/>
<path d="M46.7456 139.482C46.0256 138.449 46.0086 137.011 46.5779 135.887C47.1469 134.763 48.2406 133.953 49.4449 133.583C50.0019 133.412 50.6479 133.34 51.1323 133.663C51.5853 133.966 51.7809 134.559 51.7223 135.101C51.6639 135.642 51.3896 136.138 51.0659 136.576C49.9563 138.078 48.6066 139.328 46.7456 139.482Z" fill="#005AFF"/>
<path d="M46.9958 146.525C46.9848 146.527 46.9501 146.371 46.8938 146.087C46.8328 145.775 46.7538 145.371 46.6591 144.886C46.4791 143.876 46.1935 142.44 46.4095 140.852C46.6171 139.271 47.2465 137.919 47.9061 137.112C48.2308 136.704 48.5418 136.415 48.7718 136.237C48.8831 136.144 48.9811 136.086 49.0435 136.042C49.1071 136 49.1421 135.981 49.1455 135.985C49.1705 136.013 48.6121 136.357 47.9951 137.18C47.3701 137.99 46.7711 139.318 46.5665 140.873C46.3538 142.428 46.6171 143.852 46.7695 144.867C46.8511 145.377 46.9168 145.79 46.9548 146.077C46.9925 146.364 47.0065 146.524 46.9958 146.525Z" fill="#263238"/>
<path d="M40.1648 128.945C40.1698 128.943 40.2014 129.003 40.2568 129.118C40.3174 129.249 40.3954 129.418 40.4918 129.626C40.6934 130.068 40.9768 130.712 41.3204 131.51C42.0081 133.107 42.9268 135.326 43.8861 137.798C44.8451 140.272 45.6624 142.531 46.2308 144.173C46.5154 144.994 46.7398 145.661 46.8891 146.123C46.9584 146.342 47.0144 146.519 47.0578 146.657C47.0948 146.78 47.1114 146.845 47.1064 146.847C47.1011 146.848 47.0744 146.787 47.0278 146.667C46.9771 146.532 46.9118 146.358 46.8311 146.143C46.6578 145.668 46.4184 145.013 46.1254 144.21C45.5301 142.578 44.6968 140.327 43.7384 137.855C42.7798 135.384 41.8778 133.16 41.2171 131.554C40.8924 130.764 40.6271 130.118 40.4348 129.65C40.3494 129.437 40.2804 129.265 40.2268 129.131C40.1814 129.011 40.1598 128.948 40.1648 128.945Z" fill="#263238"/>
<path d="M44.2888 141.866C42.9432 139.576 40.4305 138.015 37.7815 137.823C37.1068 137.774 36.2955 137.887 35.9948 138.493C35.6935 139.1 36.0965 139.818 36.5562 140.316C38.4682 142.387 41.7028 143.109 44.3142 142.047" fill="#005AFF"/>
<path d="M38.8086 139.63C38.8093 139.619 38.9593 139.626 39.2309 139.646C39.3669 139.655 39.5333 139.667 39.7236 139.703C39.9136 139.738 40.1346 139.759 40.3699 139.825C40.6069 139.883 40.8683 139.941 41.1389 140.038C41.4149 140.12 41.6983 140.238 41.9959 140.364C42.5839 140.631 43.2076 140.98 43.8016 141.435C44.3913 141.894 44.8893 142.408 45.2943 142.912C45.4889 143.17 45.6749 143.415 45.8199 143.663C45.9803 143.902 46.0993 144.143 46.2109 144.359C46.3306 144.572 46.4013 144.783 46.4796 144.96C46.5586 145.137 46.6079 145.296 46.6473 145.427C46.7283 145.687 46.7676 145.832 46.7573 145.835C46.7236 145.847 46.5613 145.264 46.1119 144.411C45.9953 144.2 45.8723 143.966 45.7096 143.734C45.5623 143.492 45.3749 143.254 45.1806 143.003C44.7759 142.512 44.2843 142.011 43.7053 141.56C43.1219 141.114 42.5116 140.767 41.9359 140.497C41.6446 140.369 41.3673 140.248 41.0969 140.163C40.8323 140.061 40.5756 139.998 40.3433 139.933C39.4083 139.697 38.8049 139.665 38.8086 139.63Z" fill="#263238"/>
<path d="M190.119 35.1607C189.139 35.3864 188.662 36.5141 188.569 37.5157C188.476 38.5171 188.604 39.5747 188.183 40.4884C187.71 41.5167 186.579 42.2748 186.542 43.4064C186.519 44.0961 186.928 44.7447 186.909 45.4347C186.876 46.5677 185.721 47.4241 185.66 48.5561C185.617 49.3711 186.159 50.1534 186.029 50.9591C185.927 51.5861 185.439 52.0801 185.233 52.6807C184.822 53.8784 185.644 55.1967 186.716 55.8707C187.91 56.6221 189.44 56.8157 190.783 56.3864C192.127 55.9571 193.261 54.9121 193.798 53.6077C194.391 52.1681 194.262 50.5471 194.133 48.9957C193.731 44.1604 193.433 39.3167 193.238 34.4688" fill="#263238"/>
<path d="M187.275 52.2267C187.254 52.2077 187.543 52.1217 187.723 51.6941C187.81 51.4851 187.854 51.2037 187.837 50.8804C187.825 50.5551 187.714 50.2007 187.594 49.8011C187.482 49.4051 187.336 48.9454 187.42 48.4344C187.504 47.9154 187.875 47.4891 188.214 47.0704C188.385 46.8581 188.556 46.6374 188.664 46.3864C188.778 46.1381 188.802 45.8537 188.716 45.5871C188.544 45.0424 188.01 44.6417 187.765 44.0131C187.644 43.6981 187.643 43.3521 187.712 43.0404C187.778 42.7257 187.905 42.4401 188.033 42.1681C188.294 41.6254 188.582 41.1277 188.696 40.5994C188.93 39.5421 188.82 38.5327 188.98 37.7037C189.124 36.8731 189.475 36.2487 189.823 35.9277C189.992 35.7617 190.156 35.6734 190.263 35.6137C190.377 35.5647 190.437 35.5421 190.439 35.5477C190.451 35.5664 190.192 35.6457 189.87 35.9754C189.549 36.3004 189.227 36.9111 189.101 37.7241C189.034 38.1284 189.025 38.5831 189.008 39.0711C188.991 39.5587 188.975 40.0884 188.851 40.6357C188.736 41.1904 188.44 41.7077 188.187 42.2407C187.936 42.7644 187.706 43.3784 187.928 43.9524C188.139 44.5197 188.676 44.9227 188.878 45.5357C188.977 45.8407 188.944 46.1787 188.816 46.4521C188.693 46.7301 188.512 46.9574 188.338 47.1707C187.989 47.5921 187.641 47.9927 187.561 48.4594C187.478 48.9234 187.606 49.3711 187.711 49.7674C187.823 50.1637 187.931 50.5371 187.933 50.8761C187.942 51.2121 187.886 51.5047 187.784 51.7211C187.684 51.9387 187.546 52.0734 187.443 52.1417C187.34 52.2121 187.275 52.2267 187.275 52.2267Z" fill="#455A64"/>
<path d="M184.649 60.125L181.64 68.799L169.092 69.4717L167 74.1277L180.1 75.453C182.712 76.533 185.697 75.2093 186.65 72.5483L190.146 62.79L184.649 60.125Z" fill="#B78876"/>
<path d="M210.603 141.898C210.603 141.898 201.407 112.692 201.212 111.744C201.036 110.887 204.549 89.869 204.992 84.4297L192.567 84.893C192.567 84.893 192.567 84.9264 192.566 84.9837L187.285 85.2767L192.015 145.008H197.733L197.166 125.191C200.692 134.656 205.744 144.302 205.744 144.302L210.603 141.898Z" fill="#B78876"/>
<path d="M197.398 132.293C197.403 132.112 197.329 125.654 197.329 125.654C197.258 126.04 195.137 120.046 195.188 119.682C195.215 119.493 197.398 132.293 197.398 132.293Z" fill="#A36957"/>
<path d="M194.948 116.844C194.935 116.843 194.923 116.972 194.912 117.206C194.899 117.439 194.897 117.778 194.919 118.196C194.927 118.405 194.949 118.634 194.976 118.879C195.008 119.123 195.041 119.385 195.098 119.657C195.201 120.202 195.361 120.792 195.565 121.397C195.98 122.605 196.438 123.662 196.764 124.429C196.918 124.779 197.05 125.079 197.162 125.332C197.259 125.544 197.319 125.659 197.331 125.654C197.344 125.649 197.307 125.525 197.23 125.304C197.154 125.084 197.037 124.768 196.888 124.379C196.595 123.599 196.157 122.534 195.745 121.337C195.544 120.737 195.381 120.158 195.27 119.623C195.209 119.356 195.171 119.099 195.133 118.859C195.1 118.618 195.07 118.393 195.054 118.186C195.015 117.774 194.997 117.438 194.986 117.206C194.974 116.973 194.961 116.844 194.948 116.844Z" fill="#A36957"/>
<path d="M191.908 145.3L191.905 144.763L197.762 144.508L197.778 146.723L197.417 146.747C195.809 146.841 189.236 147.112 188.16 146.79C186.96 146.43 191.908 145.3 191.908 145.3Z" fill="#455A64"/>
<path d="M197.86 146.589C197.86 146.592 197.826 146.596 197.76 146.601C197.674 146.606 197.579 146.612 197.472 146.619C197.185 146.632 196.831 146.649 196.413 146.668C195.519 146.704 194.283 146.736 192.917 146.742C191.551 146.748 190.314 146.726 189.42 146.699C189.002 146.683 188.648 146.67 188.36 146.659C188.254 146.653 188.159 146.648 188.073 146.643C188.007 146.638 187.972 146.635 187.973 146.632C187.973 146.63 188.007 146.629 188.073 146.628C188.16 146.629 188.255 146.63 188.362 146.631C188.65 146.636 189.003 146.642 189.421 146.649C190.316 146.663 191.552 146.677 192.917 146.671C194.282 146.665 195.518 146.641 196.412 146.618C196.83 146.607 197.184 146.598 197.471 146.591C197.578 146.589 197.673 146.587 197.76 146.586C197.825 146.586 197.86 146.587 197.86 146.589Z" fill="#263238"/>
<path d="M190.012 146.778C189.99 146.78 189.973 146.528 189.812 146.273C189.656 146.015 189.437 145.887 189.45 145.869C189.454 145.851 189.704 145.96 189.872 146.236C190.044 146.51 190.029 146.782 190.012 146.778Z" fill="#263238"/>
<path d="M191.726 145.899C191.71 145.909 191.627 145.81 191.542 145.676C191.456 145.542 191.401 145.426 191.417 145.415C191.433 145.404 191.516 145.504 191.602 145.638C191.687 145.772 191.743 145.889 191.726 145.899Z" fill="#263238"/>
<path d="M192.198 145.648C192.185 145.662 192.093 145.601 191.992 145.511C191.892 145.421 191.821 145.337 191.833 145.322C191.846 145.308 191.938 145.369 192.039 145.459C192.14 145.549 192.211 145.633 192.198 145.648Z" fill="#263238"/>
<path d="M192.496 145.093C192.496 145.113 192.36 145.131 192.192 145.133C192.024 145.136 191.887 145.122 191.887 145.103C191.886 145.083 192.022 145.065 192.191 145.063C192.359 145.06 192.495 145.074 192.496 145.093Z" fill="#263238"/>
<path d="M192.596 144.709C192.602 144.726 192.454 144.794 192.257 144.809C192.059 144.825 191.902 144.782 191.906 144.764C191.91 144.744 192.064 144.754 192.251 144.739C192.439 144.724 192.589 144.69 192.596 144.709Z" fill="#263238"/>
<path d="M191.529 145.389C191.529 145.397 191.386 145.415 191.154 145.388C191.039 145.374 190.902 145.347 190.755 145.301C190.682 145.276 190.606 145.256 190.527 145.208C190.49 145.183 190.449 145.149 190.434 145.092C190.418 145.036 190.448 144.973 190.49 144.942C190.848 144.755 191.207 144.955 191.34 145.14C191.414 145.234 191.448 145.326 191.463 145.389C191.479 145.453 191.478 145.49 191.473 145.49C191.46 145.495 191.447 145.343 191.302 145.171C191.23 145.087 191.121 145.006 190.981 144.965C190.849 144.926 190.66 144.916 190.535 144.997C190.475 145.041 190.499 145.111 190.565 145.15C190.627 145.19 190.707 145.213 190.776 145.239C190.918 145.287 191.05 145.318 191.162 145.338C191.386 145.377 191.529 145.377 191.529 145.389Z" fill="#263238"/>
<path d="M191.43 145.413C191.425 145.417 191.369 145.322 191.386 145.154C191.395 145.071 191.425 144.973 191.487 144.88C191.553 144.796 191.638 144.681 191.798 144.688C191.885 144.699 191.928 144.797 191.914 144.86C191.908 144.926 191.879 144.982 191.851 145.028C191.796 145.121 191.733 145.197 191.675 145.255C191.558 145.37 191.466 145.414 191.462 145.407C191.455 145.398 191.536 145.34 191.639 145.221C191.69 145.162 191.745 145.086 191.795 144.996C191.846 144.916 191.88 144.774 191.786 144.757C191.693 144.749 191.597 144.842 191.54 144.917C191.482 144.999 191.449 145.086 191.435 145.161C191.407 145.313 191.443 145.411 191.43 145.413Z" fill="#263238"/>
<path d="M197.734 144.999C197.732 145.012 197.567 144.983 197.304 145.015C197.043 145.045 196.68 145.154 196.366 145.406C196.051 145.659 195.867 145.989 195.782 146.238C195.694 146.488 195.686 146.656 195.672 146.654C195.668 146.654 195.666 146.612 195.672 146.536C195.677 146.461 195.695 146.352 195.734 146.222C195.809 145.963 195.993 145.615 196.321 145.351C196.649 145.088 197.029 144.984 197.298 144.966C197.434 144.956 197.544 144.962 197.619 144.973C197.694 144.983 197.734 144.994 197.734 144.999Z" fill="#263238"/>
<path d="M194.93 146.124C194.932 146.143 194.552 146.203 194.079 146.205C193.605 146.209 193.225 146.152 193.227 146.134C193.229 146.113 193.609 146.138 194.078 146.135C194.547 146.133 194.927 146.104 194.93 146.124Z" fill="#263238"/>
<path d="M196.072 146.112C196.086 146.126 196.041 146.192 196.003 146.28C195.963 146.367 195.943 146.445 195.923 146.444C195.904 146.444 195.893 146.352 195.938 146.251C195.983 146.15 196.059 146.098 196.072 146.112Z" fill="#263238"/>
<path d="M196.502 145.573C196.516 145.587 196.478 145.647 196.418 145.709C196.358 145.77 196.298 145.809 196.284 145.795C196.27 145.781 196.308 145.721 196.368 145.659C196.428 145.598 196.488 145.559 196.502 145.573Z" fill="#263238"/>
<path d="M197.117 145.33C197.113 145.349 197.036 145.349 196.95 145.38C196.864 145.408 196.803 145.456 196.788 145.443C196.772 145.432 196.821 145.349 196.927 145.313C197.034 145.276 197.123 145.312 197.117 145.33Z" fill="#263238"/>
<path d="M197.555 145.208C197.562 145.227 197.528 145.257 197.48 145.275C197.432 145.294 197.387 145.295 197.38 145.277C197.373 145.259 197.406 145.228 197.455 145.21C197.503 145.191 197.547 145.19 197.555 145.208Z" fill="#263238"/>
<path d="M205.631 144.785L205.409 144.296L210.647 141.664L211.569 143.678L211.249 143.848C209.821 144.592 203.936 147.532 202.823 147.679C201.581 147.842 205.631 144.785 205.631 144.785Z" fill="#455A64"/>
<path d="M211.588 143.524C211.589 143.526 211.56 143.543 211.502 143.575C211.425 143.615 211.341 143.66 211.247 143.71C210.99 143.84 210.674 144 210.301 144.189C209.5 144.587 208.385 145.123 207.142 145.688C205.898 146.253 204.761 146.74 203.933 147.081C203.546 147.238 203.218 147.371 202.951 147.479C202.851 147.517 202.762 147.551 202.682 147.582C202.62 147.605 202.587 147.616 202.586 147.614C202.585 147.611 202.616 147.596 202.676 147.569C202.756 147.534 202.842 147.496 202.94 147.453C203.205 147.34 203.53 147.2 203.914 147.036C204.736 146.683 205.869 146.189 207.113 145.624C208.355 145.06 209.473 144.531 210.279 144.144C210.656 143.963 210.975 143.81 211.235 143.685C211.331 143.64 211.417 143.599 211.495 143.563C211.555 143.535 211.587 143.521 211.588 143.524Z" fill="#263238"/>
<path d="M204.506 146.912C204.488 146.923 204.368 146.7 204.117 146.533C203.869 146.362 203.617 146.334 203.621 146.313C203.618 146.295 203.89 146.292 204.157 146.474C204.425 146.654 204.524 146.908 204.506 146.912Z" fill="#263238"/>
<path d="M205.712 145.403C205.701 145.419 205.585 145.362 205.452 145.275C205.32 145.188 205.221 145.105 205.231 145.089C205.242 145.072 205.358 145.13 205.491 145.216C205.624 145.303 205.723 145.387 205.712 145.403Z" fill="#263238"/>
<path d="M206.037 144.983C206.031 145.001 205.922 144.983 205.793 144.943C205.664 144.902 205.565 144.854 205.571 144.836C205.577 144.817 205.686 144.835 205.814 144.876C205.943 144.916 206.042 144.964 206.037 144.983Z" fill="#263238"/>
<path d="M206.083 144.356C206.091 144.373 205.974 144.445 205.822 144.516C205.67 144.587 205.54 144.631 205.532 144.613C205.523 144.596 205.64 144.524 205.793 144.453C205.944 144.381 206.075 144.338 206.083 144.356Z" fill="#263238"/>
<path d="M206.017 143.963C206.03 143.976 205.923 144.098 205.749 144.193C205.575 144.288 205.414 144.313 205.41 144.295C205.405 144.275 205.55 144.222 205.715 144.131C205.88 144.041 206.003 143.948 206.017 143.963Z" fill="#263238"/>
<path d="M205.321 145.028C205.325 145.035 205.201 145.11 204.979 145.18C204.868 145.215 204.733 145.246 204.58 145.265C204.502 145.271 204.425 145.285 204.333 145.273C204.289 145.266 204.237 145.251 204.201 145.206C204.163 145.161 204.165 145.091 204.191 145.046C204.44 144.729 204.85 144.765 205.047 144.878C205.153 144.934 205.221 145.004 205.261 145.055C205.301 145.107 205.315 145.141 205.312 145.143C205.302 145.153 205.228 145.02 205.025 144.923C204.925 144.876 204.792 144.846 204.648 144.866C204.511 144.885 204.335 144.953 204.254 145.078C204.218 145.142 204.268 145.196 204.344 145.205C204.417 145.216 204.499 145.205 204.573 145.2C204.722 145.186 204.855 145.16 204.965 145.132C205.186 145.076 205.316 145.017 205.321 145.028Z" fill="#263238"/>
<path d="M205.242 145.081C205.239 145.087 205.149 145.023 205.095 144.862C205.069 144.783 205.057 144.681 205.075 144.571C205.101 144.468 205.131 144.329 205.28 144.268C205.364 144.243 205.559 144.411 205.573 144.474C205.594 144.537 205.474 144.504 205.468 144.557C205.456 144.665 205.43 144.76 205.4 144.836C205.341 144.989 205.274 145.068 205.268 145.063C205.258 145.057 205.308 144.971 205.353 144.82C205.375 144.745 205.395 144.654 205.403 144.551C205.417 144.458 205.39 144.314 205.298 144.337C205.209 144.367 205.16 144.492 205.139 144.584C205.119 144.682 205.125 144.775 205.143 144.849C205.18 145 205.252 145.074 205.242 145.081Z" fill="#263238"/>
<path d="M210.822 142.118C210.826 142.131 210.663 142.173 210.436 142.31C210.211 142.444 209.924 142.691 209.741 143.05C209.557 143.409 209.525 143.786 209.549 144.048C209.571 144.312 209.632 144.468 209.62 144.472C209.616 144.474 209.596 144.437 209.571 144.365C209.545 144.294 209.517 144.188 209.499 144.053C209.462 143.786 209.487 143.393 209.678 143.018C209.87 142.644 210.173 142.393 210.412 142.266C210.531 142.202 210.634 142.162 210.707 142.141C210.779 142.121 210.821 142.114 210.822 142.118Z" fill="#263238"/>
<path d="M208.726 144.298C208.735 144.314 208.414 144.525 207.983 144.72C207.552 144.917 207.182 145.021 207.176 145.004C207.169 144.985 207.527 144.851 207.953 144.656C208.38 144.462 208.715 144.28 208.726 144.298Z" fill="#263238"/>
<path d="M209.764 143.821C209.783 143.828 209.769 143.907 209.77 144.003C209.769 144.098 209.783 144.177 209.764 144.185C209.747 144.192 209.699 144.113 209.699 144.003C209.699 143.892 209.747 143.813 209.764 143.821Z" fill="#263238"/>
<path d="M209.933 143.157C209.951 143.163 209.942 143.234 209.912 143.315C209.883 143.395 209.844 143.455 209.826 143.448C209.807 143.442 209.817 143.371 209.846 143.29C209.876 143.21 209.915 143.15 209.933 143.157Z" fill="#263238"/>
<path d="M210.391 142.674C210.396 142.693 210.325 142.725 210.259 142.787C210.192 142.849 210.156 142.917 210.137 142.911C210.118 142.908 210.129 142.812 210.211 142.736C210.293 142.659 210.389 142.655 210.391 142.674Z" fill="#263238"/>
<path d="M210.745 142.387C210.759 142.401 210.741 142.442 210.705 142.479C210.669 142.516 210.628 142.535 210.614 142.521C210.6 142.508 210.618 142.467 210.654 142.43C210.691 142.393 210.731 142.374 210.745 142.387Z" fill="#263238"/>
<path d="M204.188 74.5443L203.212 62.6453L208.222 62.7346C208.222 62.7346 208.454 60.9803 207.716 57.1316C207.263 54.7716 205.691 53.3243 203.929 52.4643L203.929 52.4326L203.776 52.3926C201.534 51.3433 199.188 51.1953 199.188 51.1953L193.039 51.2663C193.039 51.2663 188.341 50.6803 185.741 54.029C184.74 55.319 181.641 64.1473 181.641 64.1473L189.021 67.7016L188.319 62.806C188.319 62.806 188.458 66.3556 188.911 67.4803C189.164 68.107 189.894 70.0523 189.894 70.0523L189.799 75.924L204.188 74.5443Z" fill="#005AFF"/>
<path d="M200.795 60.9197L199.883 64.8084H208.493L207.927 58.2891L200.795 60.9197Z" fill="#005AFF"/>
<path d="M208.494 64.8095C208.495 64.7838 208.06 64.7381 207.354 64.6968C206.649 64.6555 205.672 64.6205 204.593 64.6255C203.514 64.6308 202.537 64.6775 201.832 64.7335C201.127 64.7891 200.693 64.8488 200.695 64.8738C200.697 64.9011 201.134 64.8888 201.839 64.8675C202.544 64.8458 203.518 64.8205 204.594 64.8151C205.67 64.8105 206.644 64.8238 207.35 64.8308C208.055 64.8381 208.493 64.8361 208.494 64.8095Z" fill="#263238"/>
<path d="M200.425 58.2578C200.399 58.2588 200.39 58.6368 200.397 59.2468C200.403 59.8571 200.425 60.6991 200.461 61.6291C200.497 62.5591 200.541 63.4008 200.582 64.0098C200.622 64.6185 200.661 64.9945 200.687 64.9935C200.713 64.9925 200.722 64.6145 200.716 64.0045C200.709 63.3945 200.687 62.5518 200.651 61.6218C200.615 60.6918 200.572 59.8505 200.531 59.2415C200.49 58.6331 200.452 58.2568 200.425 58.2578Z" fill="#263238"/>
<g opacity="0.3">
<path d="M192.59 61.625C192.59 61.625 194.504 75.8143 199.884 75.4387C199.884 75.4387 202.306 75.41 203.085 73.8V73.1663L192.59 61.625Z" fill="black"/>
</g>
<g opacity="0.3">
<path d="M200.424 59.0938L199.395 66.0498L200.061 67.2704L201.159 64.8838L200.694 64.8728L200.424 59.0938Z" fill="black"/>
</g>
<path d="M189.898 70.0532C189.887 70.0572 189.835 69.9385 189.753 69.7208C189.669 69.5035 189.558 69.1855 189.429 68.7895C189.172 67.9978 188.855 66.8892 188.606 65.6412C188.359 64.3922 188.237 63.2435 188.198 62.4108C188.178 61.9945 188.172 61.6572 188.178 61.4242C188.183 61.1912 188.191 61.0625 188.203 61.0625C188.23 61.0622 188.249 61.5762 188.32 62.4025C188.391 63.2288 188.53 64.3665 188.776 65.6075C189.023 66.8478 189.321 67.9555 189.547 68.7542C189.653 69.1245 189.743 69.4402 189.817 69.7002C189.88 69.9235 189.909 70.0492 189.898 70.0532Z" fill="#263238"/>
<path d="M192.073 74.1291C192.027 74.1431 191.894 73.8367 191.776 73.4454C191.658 73.0537 191.599 72.7254 191.645 72.7114C191.691 72.6974 191.824 73.0037 191.942 73.3951C192.06 73.7864 192.119 74.1151 192.073 74.1291Z" fill="#263238"/>
<path d="M192.814 74.0723C192.77 74.0837 192.625 73.6243 192.618 73.035C192.608 72.4457 192.739 71.9823 192.784 71.9923C192.833 72.0013 192.781 72.4637 192.791 73.0323C192.798 73.601 192.864 74.062 192.814 74.0723Z" fill="#263238"/>
<path d="M189.173 67.8673C189.152 67.9103 187.434 67.0953 185.337 66.0473C183.239 64.9989 181.557 64.1149 181.578 64.0719C181.6 64.0289 183.317 64.8439 185.415 65.8919C187.511 66.9399 189.194 67.8243 189.173 67.8673Z" fill="#263238"/>
<path d="M192.199 52.4177C192.237 50.7314 192.246 48.9554 192.246 48.9554C192.246 48.9554 190.083 48.5387 189.706 45.6927C189.347 42.9787 190.352 36.6104 190.352 36.6104C193.512 35.416 196.795 36.4987 198.96 39.0587L198.423 52.75C198.36 54.3394 196.944 55.5517 195.243 55.472C193.524 55.3914 192.162 54.0244 192.199 52.4177Z" fill="#B78876"/>
<path d="M190.188 41.7024C190.176 41.894 190.329 42.062 190.529 42.078C190.729 42.094 190.9 41.9517 190.912 41.76C190.924 41.5684 190.771 41.4 190.571 41.384C190.371 41.368 190.2 41.5107 190.188 41.7024Z" fill="#263238"/>
<path d="M190.052 41.2236C190.096 41.2723 190.377 41.0756 190.768 41.0866C191.159 41.0919 191.441 41.3006 191.484 41.2539C191.506 41.2333 191.462 41.1466 191.339 41.0523C191.219 40.9586 191.011 40.8649 190.767 40.8596C190.524 40.8546 190.316 40.9389 190.196 41.0279C190.074 41.1173 190.031 41.2019 190.052 41.2236Z" fill="#263238"/>
<path d="M194.157 41.9521C194.145 42.1438 194.298 42.3121 194.498 42.3281C194.698 42.3441 194.869 42.2018 194.881 42.0101C194.893 41.8184 194.74 41.6501 194.54 41.6341C194.34 41.6178 194.169 41.7604 194.157 41.9521Z" fill="#263238"/>
<path d="M194.13 41.4736C194.174 41.5223 194.455 41.3256 194.846 41.3366C195.237 41.3423 195.519 41.5509 195.562 41.5039C195.584 41.4833 195.54 41.3966 195.417 41.3023C195.297 41.2086 195.089 41.1149 194.845 41.1096C194.602 41.1046 194.394 41.1889 194.274 41.2779C194.152 41.3673 194.109 41.4519 194.13 41.4736Z" fill="#263238"/>
<path d="M192.638 44.3327C192.64 44.3104 192.398 44.2624 192.005 44.2017C191.906 44.1887 191.812 44.1667 191.797 44.098C191.775 44.0254 191.82 43.9187 191.871 43.8037C191.971 43.5644 192.076 43.3137 192.186 43.0507C192.624 41.9784 192.944 41.0957 192.901 41.0784C192.857 41.0611 192.467 41.9161 192.029 42.9884C191.923 43.2527 191.822 43.505 191.726 43.7461C191.686 43.8587 191.617 43.9857 191.664 44.1367C191.689 44.212 191.761 44.2681 191.825 44.2871C191.888 44.3084 191.944 44.3107 191.994 44.3151C192.39 44.3471 192.636 44.3551 192.638 44.3327Z" fill="#263238"/>
<path d="M192.246 48.9537C192.246 48.9537 194.15 49.1257 196.068 48.0391C196.068 48.0391 195.097 49.9624 192.267 49.6237L192.246 48.9537Z" fill="#A36957"/>
<path d="M195.383 40.3452C195.303 40.4676 195.006 40.4132 194.672 40.3532C194.34 40.2862 194.044 40.2272 194.014 40.0839C193.981 39.9466 194.325 39.7562 194.77 39.8416C195.215 39.9262 195.465 40.2296 195.383 40.3452Z" fill="#263238"/>
<path d="M191.492 39.7693C191.462 39.9119 191.143 39.9639 190.776 39.9826C190.408 39.9976 190.086 39.9749 190.043 39.8359C189.999 39.7013 190.31 39.4819 190.752 39.4626C191.194 39.4413 191.523 39.6309 191.492 39.7693Z" fill="#263238"/>
<path d="M192.641 45.273C192.558 45.25 192.466 45.297 192.425 45.372C192.375 45.461 192.398 45.5836 192.476 45.6493C192.554 45.715 192.678 45.7166 192.758 45.653C192.838 45.5896 192.864 45.4676 192.817 45.3773C192.77 45.287 192.656 45.2376 192.558 45.2656" fill="#A36957"/>
<path d="M192.732 45.3094C192.75 45.2938 192.67 45.1978 192.499 45.2351C192.42 45.2525 192.317 45.3235 192.285 45.4448C192.254 45.5588 192.282 45.7065 192.403 45.7991C192.528 45.8871 192.679 45.8691 192.778 45.8014C192.885 45.7314 192.915 45.6034 192.898 45.5234C192.864 45.3478 192.734 45.3198 192.73 45.3441C192.715 45.3661 192.775 45.4271 192.764 45.5311C192.758 45.5821 192.734 45.6294 192.684 45.6534C192.636 45.6798 192.559 45.6798 192.515 45.6461C192.47 45.6135 192.446 45.5408 192.455 45.4848C192.462 45.4288 192.5 45.3871 192.545 45.3615C192.638 45.3088 192.72 45.3334 192.732 45.3094Z" fill="#263238"/>
<path d="M197.65 42.4051C197.313 43.1864 196.49 43.7884 196.604 44.6317C196.678 45.1761 197.027 45.6837 196.959 46.2291C196.874 46.9137 196.163 47.3884 196.062 48.0711C195.939 48.9084 196.753 49.5591 197.078 50.3404C197.552 51.4781 196.946 52.7577 196.932 53.9901C196.91 55.8777 198.515 57.6411 200.396 57.7961C201.157 57.8587 202.015 57.6291 202.409 56.9754C202.735 56.4361 202.669 55.7507 202.865 55.1517C203.155 54.2597 204.006 53.6067 204.185 52.6857C204.512 51.0067 202.483 49.6174 202.616 47.9121C202.673 47.1834 203.123 46.5477 203.314 45.8424C203.565 44.9184 203.335 43.8777 202.719 43.1451C202.218 42.5494 201.491 42.1577 201.065 41.5071C200.581 40.7691 200.565 39.8334 200.382 38.9701C199.938 36.8664 198.358 35.0391 196.341 34.2951C194.323 33.5511 191.935 33.9151 190.231 35.2261C190.231 35.2261 189.746 37.4231 192.002 37.7904C194.257 38.1577 195.302 37.7337 195.556 38.6377C195.556 38.6377 195.299 39.6934 196.232 40.7021C197.164 41.7114 198.041 41.5004 197.65 42.4051Z" fill="#263238"/>
<path d="M201.25 57.6458C201.249 57.6518 201.178 57.6442 201.044 57.6245C200.91 57.6035 200.713 57.5592 200.47 57.4698C199.989 57.2938 199.307 56.9105 198.725 56.1782C198.437 55.8152 198.166 55.3752 197.984 54.8578C197.797 54.3435 197.69 53.7605 197.681 53.1465C197.666 52.5322 197.753 51.8878 197.921 51.2432C198.005 50.9205 198.114 50.5985 198.24 50.2788C198.365 49.9578 198.518 49.6485 198.606 49.3212C198.701 48.9948 198.688 48.6615 198.603 48.3435C198.516 48.0255 198.368 47.7265 198.224 47.4308C198.079 47.1355 197.931 46.8408 197.835 46.5275C197.738 46.2168 197.702 45.8818 197.765 45.5695C197.898 44.9415 198.28 44.4768 198.505 43.9998C198.743 43.5275 198.817 43.0282 198.806 42.5802C198.766 41.6722 198.379 41.0008 198.063 40.6138C197.734 40.2265 197.484 40.0788 197.497 40.0625C197.497 40.0625 197.761 40.1875 198.114 40.5698C198.453 40.9518 198.871 41.6325 198.929 42.5748C198.949 43.0392 198.878 43.5652 198.634 44.0628C198.404 44.5572 198.036 45.0252 197.923 45.5998C197.806 46.1788 198.08 46.7752 198.377 47.3555C198.522 47.6515 198.676 47.9575 198.77 48.2978C198.863 48.6358 198.877 49.0178 198.774 49.3658C198.68 49.7155 198.523 50.0288 198.401 50.3422C198.277 50.6555 198.169 50.9705 198.086 51.2862C197.92 51.9168 197.832 52.5452 197.842 53.1435C197.846 54.3452 198.258 55.3955 198.823 56.1015C199.377 56.8242 200.031 57.2142 200.496 57.4065C200.967 57.5975 201.254 57.6262 201.25 57.6458Z" fill="#455A64"/>
<path d="M200.915 40.8236C200.916 40.8346 200.74 40.8662 200.418 40.8976C200.098 40.9239 199.624 40.9612 199.045 40.8616C198.48 40.7582 197.766 40.4809 197.313 39.8106C197.091 39.4742 197.003 39.0672 196.858 38.6916C196.722 38.3116 196.459 37.9826 196.099 37.7546C195.369 37.2922 194.511 37.2356 193.761 37.1442C193.007 37.0592 192.298 36.8992 191.818 36.5392C191.334 36.1949 191.086 35.7482 191.023 35.4262C190.986 35.2649 190.989 35.1356 190.997 35.0502C191.009 34.9646 191.018 34.9209 191.024 34.9219C191.045 34.9222 191.001 35.1052 191.088 35.4096C191.169 35.7109 191.419 36.1229 191.888 36.4386C192.351 36.7662 193.028 36.9092 193.78 36.9856C194.524 37.0696 195.412 37.1159 196.193 37.6089C196.579 37.8496 196.877 38.2269 197.017 38.6306C197.165 39.0272 197.248 39.4176 197.447 39.7242C197.853 40.3446 198.526 40.6282 199.069 40.7416C199.625 40.8539 200.094 40.8366 200.414 40.8309C200.735 40.8196 200.914 40.8109 200.915 40.8236Z" fill="#455A64"/>
<path d="M200.09 38.1047C200.091 38.113 199.955 38.1557 199.699 38.162C199.445 38.169 199.065 38.124 198.647 37.925C198.438 37.826 198.224 37.684 198.027 37.4944C197.827 37.3057 197.664 37.0617 197.51 36.8044C197.21 36.2974 196.92 35.672 196.297 35.4137C195.686 35.1517 195.014 35.21 194.429 35.2497C193.839 35.3077 193.286 35.325 192.835 35.2364C192.381 35.1574 192.041 34.9694 191.852 34.7954C191.756 34.7094 191.691 34.6324 191.656 34.5754C191.618 34.5194 191.601 34.4887 191.606 34.485C191.62 34.4744 191.7 34.592 191.895 34.743C192.089 34.8934 192.417 35.0544 192.856 35.1154C193.295 35.1854 193.823 35.1577 194.416 35.0904C195.003 35.044 195.696 34.97 196.367 35.255C196.699 35.396 196.97 35.6457 197.163 35.916C197.359 36.1864 197.5 36.4687 197.648 36.7237C197.795 36.979 197.946 37.212 198.129 37.392C198.309 37.5744 198.507 37.7144 198.702 37.8154C199.092 38.0184 199.454 38.081 199.7 38.0944C199.949 38.109 200.088 38.0897 200.09 38.1047Z" fill="#455A64"/>
<path d="M202.244 56.9237C202.227 56.916 202.333 56.7013 202.456 56.291C202.578 55.882 202.7 55.2673 202.679 54.5043C202.653 53.7467 202.47 52.83 201.968 51.959C201.724 51.5223 201.353 51.1337 201.051 50.654C200.901 50.4147 200.773 50.1463 200.716 49.8493C200.66 49.552 200.694 49.2363 200.79 48.9497C200.977 48.3743 201.311 47.8897 201.383 47.3607C201.472 46.83 201.204 46.346 200.951 45.9153C200.822 45.696 200.694 45.4793 200.594 45.2527C200.494 45.026 200.431 44.7873 200.406 44.5567C200.355 44.0933 200.409 43.6677 200.443 43.2857C200.54 42.5243 200.469 41.8987 200.285 41.5143C200.108 41.1253 199.875 41.0087 199.892 40.9927C199.893 40.9903 199.907 40.9967 199.932 41.012C199.957 41.028 199.996 41.049 200.038 41.088C200.127 41.1603 200.246 41.2887 200.346 41.485C200.557 41.874 200.647 42.5283 200.565 43.2963C200.538 43.68 200.493 44.1003 200.548 44.5393C200.592 44.9823 200.821 45.4003 201.088 45.834C201.218 46.0533 201.355 46.2823 201.451 46.5423C201.549 46.8 201.595 47.0947 201.551 47.384C201.47 47.967 201.127 48.4603 200.955 49.0023C200.865 49.273 200.836 49.551 200.885 49.8183C200.936 50.0857 201.053 50.3347 201.196 50.5647C201.482 51.0253 201.854 51.422 202.106 51.8793C202.617 52.7843 202.79 53.7273 202.801 54.5017C202.807 55.2813 202.663 55.9037 202.52 56.3117C202.445 56.5153 202.383 56.6713 202.328 56.772C202.279 56.874 202.249 56.9263 202.244 56.9237Z" fill="#455A64"/>
<path d="M188.666 119.03C188.666 119.03 186.421 97.7493 186.292 89.8856C186.163 82.0223 189.828 74.2636 189.828 74.2636L204.189 73.6562C204.189 73.6562 207.027 81.6349 207.078 84.9863C207.177 91.4993 205.348 97.9306 205.558 103.097L206.038 119.03" fill="#263238"/>
<path d="M206.52 92.8676C206.523 92.8729 206.442 92.9342 206.286 93.0452C206.246 93.0736 206.202 93.1042 206.155 93.1376C206.11 93.1756 206.066 93.2236 206.016 93.2719C205.915 93.3686 205.797 93.4786 205.696 93.6302C205.232 94.1982 204.894 95.2129 204.572 96.4786C204.395 97.1072 204.215 97.8126 203.845 98.5032C203.746 98.6716 203.657 98.8502 203.526 99.0072C203.464 99.0872 203.407 99.1729 203.338 99.2499L203.117 99.4709C202.818 99.7659 202.438 99.9882 202.037 100.164C201.233 100.516 200.326 100.684 199.497 101.099C198.663 101.506 198.037 102.293 197.654 103.2C197.249 104.103 197.004 105.052 196.667 105.937C196.335 106.815 195.884 107.671 195.168 108.211C194.457 108.77 193.578 108.898 192.818 108.947C192.044 108.992 191.328 108.97 190.686 109.067C190.047 109.156 189.48 109.359 189.079 109.674C188.677 109.99 188.442 110.386 188.332 110.726C188.217 111.069 188.238 111.359 188.276 111.543C188.313 111.73 188.366 111.82 188.354 111.825C188.354 111.825 188.291 111.741 188.242 111.551C188.192 111.365 188.159 111.065 188.267 110.706C188.372 110.351 188.605 109.936 189.018 109.598C189.433 109.261 190.015 109.045 190.668 108.946C191.322 108.839 192.046 108.855 192.808 108.804C193.561 108.749 194.402 108.617 195.071 108.084C195.747 107.569 196.183 106.746 196.508 105.877C196.84 105.002 197.083 104.052 197.496 103.129C197.883 102.206 198.546 101.369 199.42 100.948C200.282 100.52 201.19 100.358 201.974 100.017C202.365 99.8482 202.727 99.6382 203.014 99.3592L203.226 99.1502C203.292 99.0772 203.347 98.9949 203.407 98.9189C203.534 98.7699 203.621 98.5969 203.719 98.4349C204.084 97.7682 204.27 97.0709 204.454 96.4459C204.79 95.1869 205.152 94.1559 205.643 93.5886C205.751 93.4376 205.874 93.3286 205.981 93.2339C206.034 93.1869 206.081 93.1402 206.128 93.1036C206.178 93.0722 206.223 93.0432 206.266 93.0166C206.43 92.9132 206.517 92.8622 206.52 92.8676Z" fill="#FAFAFA"/>
<path d="M206.606 83.0234C206.612 83.0231 206.618 83.1208 206.624 83.3084C206.627 83.4958 206.605 83.7738 206.525 84.1228C206.358 84.8168 205.851 85.7694 204.902 86.6314C204.433 87.0644 203.867 87.4828 203.22 87.8598C202.577 88.2418 201.867 88.6051 201.14 89.0161C200.415 89.4281 199.668 89.8941 199.011 90.5128C198.346 91.1241 197.847 91.9278 197.399 92.7784C196.945 93.6281 196.544 94.4928 196 95.2414C195.731 95.6154 195.426 95.9571 195.089 96.2494C194.75 96.5398 194.38 96.7754 194.005 96.9714C193.252 97.3624 192.484 97.6041 191.773 97.8268C191.061 98.0471 190.396 98.2421 189.815 98.4858C189.233 98.7258 188.729 98.9974 188.321 99.2858C187.914 99.5744 187.604 99.8768 187.384 100.15C186.94 100.7 186.846 101.099 186.821 101.085C186.815 101.083 186.847 100.991 186.914 100.815C186.991 100.645 187.11 100.391 187.33 100.109C187.546 99.8238 187.855 99.5081 188.264 99.2071C188.673 98.9064 189.181 98.6231 189.767 98.3728C190.353 98.1188 191.021 97.9158 191.73 97.6898C192.437 97.4618 193.196 97.2161 193.93 96.8301C194.296 96.6368 194.654 96.4058 194.98 96.1241C195.305 95.8401 195.599 95.5088 195.862 95.1424C196.391 94.4101 196.789 93.5521 197.245 92.6971C197.695 91.8424 198.208 91.0161 198.893 90.3891C199.568 89.7568 200.329 89.2874 201.06 88.8768C201.794 88.4674 202.505 88.1094 203.146 87.7358C203.79 87.3678 204.351 86.9621 204.818 86.5408C205.763 85.7031 206.274 84.7814 206.458 84.1054C206.639 83.4231 206.579 83.0214 206.606 83.0234Z" fill="#FAFAFA"/>
<path d="M186.364 91.012C186.361 91.013 186.351 90.9913 186.335 90.9473C186.321 90.903 186.29 90.8386 186.27 90.749C186.23 90.571 186.204 90.2896 186.304 89.95C186.489 89.2713 187.226 88.4266 188.415 88.0036C189.006 87.8006 189.676 87.678 190.375 87.495C191.066 87.309 191.819 87.0483 192.381 86.4706C192.66 86.1856 192.896 85.8463 193.092 85.4733C193.283 85.097 193.441 84.693 193.59 84.276C193.889 83.4446 194.139 82.5413 194.647 81.72C195.151 80.8923 195.971 80.3173 196.821 80.0293C197.668 79.718 198.523 79.58 199.316 79.397C200.111 79.224 200.855 79 201.486 78.6583C202.108 78.305 202.603 77.8346 202.954 77.336C203.673 76.3363 203.861 75.3123 203.887 74.6356C203.903 73.948 203.793 73.5736 203.816 73.5703C203.816 73.5703 203.949 73.9383 203.954 74.637C203.949 75.324 203.778 76.3726 203.054 77.407C202.7 77.9226 202.196 78.413 201.556 78.784C200.909 79.1416 200.15 79.3746 199.352 79.553C198.555 79.741 197.706 79.8826 196.881 80.1886C196.051 80.4743 195.28 81.0186 194.794 81.8123C194.304 82.6033 194.053 83.4966 193.75 84.3333C193.599 84.7533 193.438 85.164 193.239 85.5503C193.036 85.934 192.788 86.2873 192.494 86.5846C191.897 87.19 191.11 87.4526 190.412 87.6346C189.703 87.8136 189.036 87.9283 188.454 88.1203C187.298 88.515 186.564 89.324 186.369 89.97C186.263 90.294 186.276 90.5656 186.305 90.7423C186.342 90.9176 186.372 91.0093 186.364 91.012Z" fill="#FAFAFA"/>
<path d="M205.372 109.008C205.378 109.007 205.386 109.079 205.395 109.217C205.403 109.355 205.392 109.561 205.334 109.819C205.216 110.332 204.819 111.035 204.074 111.62C203.707 111.916 203.262 112.187 202.752 112.405C202.243 112.623 201.68 112.795 201.093 112.979C200.505 113.162 199.889 113.354 199.29 113.637C198.686 113.913 198.129 114.318 197.649 114.834C197.163 115.343 196.743 115.899 196.278 116.391C195.815 116.885 195.288 117.292 194.742 117.593C193.645 118.199 192.507 118.406 191.572 118.417C190.629 118.427 189.881 118.229 189.39 118.054C189.142 117.968 188.958 117.882 188.836 117.817C188.713 117.756 188.65 117.721 188.652 117.715C188.655 117.71 188.723 117.734 188.85 117.785C188.976 117.839 189.163 117.915 189.411 117.99C189.903 118.144 190.644 118.32 191.569 118.294C192.487 118.268 193.598 118.051 194.663 117.453C195.194 117.155 195.701 116.759 196.153 116.274C196.609 115.79 197.027 115.233 197.523 114.713C198.011 114.187 198.598 113.762 199.216 113.483C199.832 113.195 200.456 113.005 201.045 112.826C201.634 112.647 202.194 112.48 202.696 112.272C203.196 112.066 203.634 111.806 203.997 111.523C204.735 110.964 205.133 110.296 205.268 109.802C205.4 109.302 205.348 109.007 205.372 109.008Z" fill="#FAFAFA"/>
<path d="M203.735 64.8257L200.958 64.8914C200.776 65.8267 200.33 66.4667 200.33 66.4667C198.008 62.436 196.208 57.036 195.761 54.8657C195.826 54.649 195.903 54.409 195.999 54.141C196.11 53.8317 196.015 53.2457 195.963 52.9207C195.885 52.4374 195.75 51.7874 195.709 51.4864C195.585 50.5694 195.438 50.4254 195.118 50.529C194.683 50.67 195.296 53.1044 194.939 53.1574C194.748 53.1857 194.513 52.3517 194.445 51.6674C194.377 50.983 194.068 48.878 193.842 48.7377C193.51 48.532 193.221 48.8574 193.305 49.5387C193.389 50.2284 193.496 52.2854 193.135 52.313C192.778 52.3404 192.479 48.8507 192.479 48.8507C192.479 48.8507 192.536 48.0914 192.117 48.1097C191.362 48.1424 191.952 51.8217 192.017 52.1704C192.062 52.4127 191.669 52.4574 191.635 52.194C191.599 51.923 191.417 48.704 190.648 48.7297C190.058 48.7497 191.105 51.7617 190.774 52.46C190.443 53.158 190.212 50.0887 189.649 50.131C189.439 50.147 189.284 50.188 189.67 51.925C189.877 52.8587 190.485 54.575 191.017 55.9964C191.91 60.813 195.829 76.2217 201.974 73.401C205.412 71.8227 206.807 64.8277 206.807 64.8277L203.735 64.8257Z" fill="#B78876"/>
<path d="M191.885 52.403C191.885 52.403 191.913 52.408 191.965 52.392C192.012 52.3776 192.105 52.319 192.09 52.1993C192.082 51.9926 192.05 51.691 192.002 51.3013C191.966 50.909 191.849 50.4383 191.848 49.8813C191.844 49.6023 191.851 49.3023 191.867 48.9843C191.877 48.8253 191.88 48.6603 191.915 48.5043C191.941 48.3533 192.043 48.1806 192.159 48.2013L192.172 48.2036L192.177 48.2033C192.296 48.198 192.389 48.2903 192.427 48.4316C192.468 48.5666 192.479 48.726 192.47 48.878L192.47 48.8843L192.47 48.8886C192.548 49.7413 192.632 50.675 192.827 51.6716C192.854 51.7963 192.881 51.9216 192.92 52.048C192.939 52.111 192.962 52.1746 192.989 52.239C193.007 52.272 193.019 52.3033 193.046 52.3376C193.07 52.3666 193.1 52.4173 193.185 52.425C193.324 52.4146 193.364 52.31 193.395 52.25C193.425 52.181 193.444 52.1126 193.457 52.045C193.486 51.9093 193.5 51.774 193.511 51.638C193.548 51.0943 193.529 50.5396 193.489 49.9706C193.476 49.683 193.405 49.3963 193.454 49.1356C193.477 49.0073 193.53 48.878 193.618 48.8246C193.661 48.7986 193.709 48.7933 193.761 48.8066C193.788 48.8143 193.814 48.825 193.841 48.841C193.863 48.862 193.858 48.8526 193.877 48.89C193.989 49.1286 194.046 49.4393 194.109 49.728C194.168 50.023 194.219 50.3236 194.266 50.6276C194.313 50.9316 194.356 51.2393 194.392 51.5493C194.422 51.859 194.467 52.1843 194.546 52.4973C194.586 52.655 194.63 52.8123 194.696 52.9683C194.73 53.0466 194.765 53.124 194.834 53.204C194.858 53.238 194.936 53.3016 195.033 53.2766C195.127 53.2453 195.154 53.1706 195.169 53.127C195.223 52.9353 195.207 52.776 195.205 52.6083C195.198 52.443 195.184 52.2793 195.17 52.116C195.146 51.8353 195.119 51.5576 195.11 51.284C195.106 51.1476 195.105 51.0113 195.12 50.883C195.128 50.8203 195.139 50.7556 195.161 50.7093C195.171 50.6856 195.183 50.6683 195.193 50.6596C195.198 50.6543 195.201 50.6566 195.206 50.6513L195.249 50.639C195.47 50.5476 195.544 50.8553 195.602 51.1033C195.654 51.362 195.686 51.629 195.738 51.892C195.826 52.417 195.938 52.9386 195.996 53.4403C196.02 53.6886 196.038 53.947 195.967 54.1576C195.888 54.3986 195.81 54.637 195.733 54.8726L195.726 54.894L195.731 54.9163C196.137 56.7086 196.7 58.3123 197.222 59.736C197.75 61.1583 198.278 62.3876 198.743 63.3926C199.208 64.399 199.624 65.174 199.912 65.703C200.058 65.9536 200.173 66.1516 200.259 66.299C200.339 66.4333 200.383 66.5016 200.388 66.4993C200.392 66.4966 200.357 66.4233 200.285 66.2843C200.206 66.134 200.099 65.9313 199.964 65.6753C199.693 65.1386 199.293 64.3576 198.844 63.3473C198.393 62.338 197.88 61.1066 197.364 59.684C196.854 58.262 196.301 56.654 195.906 54.8803L195.904 54.924C195.981 54.6913 196.059 54.4563 196.138 54.2186C196.227 53.9466 196.201 53.681 196.179 53.421C196.119 52.8996 196.01 52.393 195.923 51.8656C195.872 51.605 195.84 51.3373 195.786 51.064C195.755 50.9276 195.725 50.7903 195.65 50.6513C195.614 50.584 195.558 50.5073 195.466 50.466C195.373 50.4256 195.278 50.437 195.203 50.4553L195.147 50.4713C195.122 50.4826 195.091 50.496 195.072 50.5143C195.029 50.5513 195.005 50.5936 194.987 50.633C194.952 50.713 194.942 50.7866 194.932 50.8606C194.915 51.007 194.916 51.1493 194.92 51.2906C194.93 51.5733 194.957 51.853 194.981 52.1326C194.995 52.2953 195.008 52.4573 195.015 52.617C195.021 52.7726 195.027 52.9446 194.991 53.065C194.982 53.1 194.966 53.0933 194.985 53.1103L194.986 53.112C194.984 53.1006 194.988 53.129 194.988 53.1243L194.987 53.121C194.986 53.1166 194.987 53.1126 194.988 53.1093C194.99 53.1063 194.997 53.0946 194.993 53.094C194.99 53.093 194.982 53.0886 194.973 53.0756C194.936 53.0333 194.899 52.964 194.871 52.895C194.811 52.7553 194.768 52.6036 194.729 52.4526C194.653 52.147 194.61 51.8436 194.579 51.5286C194.542 51.215 194.498 50.906 194.45 50.6C194.402 50.294 194.35 49.9913 194.289 49.6926C194.22 49.392 194.176 49.103 194.036 48.8026C194.027 48.7723 193.968 48.705 193.931 48.6853C193.893 48.663 193.852 48.6456 193.807 48.633C193.717 48.6083 193.608 48.6196 193.525 48.672C193.36 48.7813 193.309 48.955 193.279 49.1056C193.252 49.261 193.256 49.4143 193.273 49.5623C193.29 49.7046 193.303 49.844 193.315 49.985C193.357 50.5463 193.378 51.0986 193.345 51.6266C193.336 51.7583 193.322 51.8886 193.297 52.0116C193.285 52.0733 193.268 52.133 193.246 52.1843C193.235 52.2096 193.222 52.2333 193.21 52.2466C193.198 52.2743 193.187 52.2403 193.188 52.2853C193.205 52.251 193.189 52.27 193.176 52.2413C193.161 52.2256 193.149 52.1956 193.136 52.1723C193.112 52.118 193.092 52.0606 193.073 52.0013C193.036 51.883 193.008 51.7603 192.981 51.6393C192.783 50.6603 192.69 49.7243 192.604 48.8776V48.8883C192.612 48.717 192.6 48.5533 192.55 48.3926C192.525 48.3136 192.487 48.233 192.42 48.1706C192.353 48.1063 192.258 48.0776 192.173 48.0803L192.191 48.0823C192.057 48.0586 191.959 48.1396 191.904 48.22C191.846 48.3026 191.821 48.3923 191.801 48.479C191.765 48.654 191.765 48.8203 191.757 48.98C191.745 49.3006 191.742 49.6023 191.752 49.8843C191.762 50.453 191.89 50.9236 191.936 51.3113C191.994 51.6986 192.037 51.9993 192.056 52.202C192.077 52.2983 191.999 52.3603 191.958 52.3766C191.911 52.396 191.884 52.399 191.885 52.403Z" fill="#A36957"/>
<path d="M170.177 69.409C170.177 69.409 169.254 69.365 168.246 69.6303C166.524 70.0833 163.553 71.884 163.43 74.109H165.588C165.588 74.109 164.379 76.682 164.735 76.4436C165.656 75.8256 167.491 73.9613 167.491 73.9613L170.177 69.409Z" fill="#B78876"/>
<path d="M199.619 30.6817C199.571 30.686 199.375 28.9013 199.181 26.6963C198.987 24.4903 198.869 22.6993 198.917 22.6953C198.964 22.691 199.16 24.4753 199.354 26.6813C199.548 28.886 199.667 30.6773 199.619 30.6817Z" fill="#263238"/>
<path d="M209.09 22.805C209.129 22.8326 207.67 24.9493 205.833 27.5316C203.995 30.115 202.474 32.186 202.434 32.1583C202.395 32.1306 203.853 30.0143 205.691 27.431C207.529 24.8486 209.05 22.7773 209.09 22.805Z" fill="#263238"/>
<path d="M213.023 32.3952C213.033 32.4422 211.331 32.8316 209.223 33.2649C207.113 33.6982 205.396 34.0116 205.387 33.9646C205.377 33.9176 207.079 33.5282 209.188 33.0949C211.296 32.6619 213.014 32.3486 213.023 32.3952Z" fill="#263238"/>
<path d="M99.6503 78.1776L87.8633 138.777L86.3203 146.71L165.008 146.322C168.539 146.305 171.669 143.169 172.805 138.51L186.758 81.2979C187.621 77.7613 185.728 74.0829 183.047 74.0859L103.406 74.1696C101.648 74.1719 100.111 75.8126 99.6503 78.1776Z" fill="#005AFF"/>
<g opacity="0.5">
<path d="M99.6503 78.1776L87.8633 138.777L86.3203 146.71L165.008 146.322C168.539 146.305 171.669 143.169 172.805 138.51L186.758 81.2979C187.621 77.7613 185.728 74.0829 183.047 74.0859L103.406 74.1696C101.648 74.1719 100.111 75.8126 99.6503 78.1776Z" fill="black"/>
</g>
<path d="M157.461 134.673L149.13 67.5365C148.788 64.7855 146.597 62.7335 144.01 62.7422L125.741 62.8019C124.389 62.8062 123.093 63.3812 122.132 64.4022L113.457 73.6239L62.6484 73.8889C59.5434 73.9052 57.1581 76.8429 57.5697 80.1439L65.3051 142.195C65.6474 144.942 67.8347 146.991 70.4184 146.986L158.967 146.811C168.83 147.015 169.771 144.103 169.771 144.103C158.469 146.608 157.462 134.68 157.461 134.673Z" fill="#005AFF"/>
<g opacity="0.5">
<path d="M119.28 121.239L116.294 124.446L93.293 103.754L96.2796 100.547L119.28 121.239Z" fill="white"/>
<path d="M115.042 99.8359L118.343 102.805L97.5311 125.157L94.2305 122.188L115.042 99.8359Z" fill="white"/>
</g>
<path d="M170.107 34.5937C169.894 34.5024 169.741 34.2954 169.73 34.0484L169.597 30.9537C169.588 30.759 169.671 30.5717 169.821 30.4477C169.971 30.3234 170.171 30.277 170.361 30.3217C170.858 30.439 171.407 30.3307 171.866 30.0244C172.288 29.7424 172.572 29.327 172.644 28.8847C172.716 28.444 172.579 27.9564 172.27 27.5464C171.938 27.1074 171.448 26.8117 170.956 26.7554C169.952 26.6397 168.869 27.4087 168.59 28.4347C168.5 28.766 168.158 28.962 167.827 28.8717C167.49 28.779 167.299 28.4397 167.389 28.1084C167.827 26.4957 169.491 25.3344 171.099 25.5194C171.932 25.6154 172.722 26.0807 173.262 26.796C173.776 27.476 173.998 28.31 173.871 29.0847C173.744 29.8664 173.265 30.5857 172.556 31.0587C172.044 31.4004 171.457 31.589 170.869 31.6094L170.973 33.9947C170.987 34.338 170.721 34.628 170.378 34.6427C170.282 34.647 170.19 34.629 170.107 34.5937Z" fill="#005AFF"/>
<path d="M171.017 35.857C171.036 36.1374 170.824 36.3804 170.544 36.3994C170.264 36.4187 170.021 36.207 170.001 35.9267C169.982 35.6464 170.194 35.4034 170.474 35.384C170.754 35.3647 170.997 35.5767 171.017 35.857Z" fill="#005AFF"/>
<path d="M159.397 30.2294C159.401 30.2294 159.411 30.1607 159.427 30.0264C159.442 29.8814 159.464 29.6841 159.492 29.4304C159.507 29.1667 159.574 28.8481 159.653 28.4724C159.697 28.2857 159.72 28.0781 159.788 27.8681C159.853 27.6567 159.922 27.4324 159.995 27.1951C160.318 26.2591 160.815 25.1364 161.653 24.0197C162.484 22.9054 163.653 21.8044 165.153 20.9704C165.892 20.5297 166.737 20.2227 167.623 19.9517C168.523 19.7387 169.477 19.5561 170.473 19.5797C170.971 19.5531 171.474 19.6261 171.986 19.6691C172.241 19.6934 172.493 19.7617 172.75 19.8064C173.007 19.8537 173.265 19.9041 173.517 19.9914C174.546 20.2554 175.546 20.7407 176.498 21.3424C178.411 22.5454 180.021 24.5027 180.904 26.8754C181.347 28.0624 181.559 29.3637 181.558 30.6781C181.584 31.9951 181.329 33.3327 180.86 34.5921L180.71 34.9727L180.69 35.0231L180.711 35.0701C181.547 36.9957 182.367 38.8844 183.161 40.7144L183.301 40.5551C181.58 39.8937 179.911 39.2524 178.309 38.6371L178.248 38.6134L178.199 38.6604C176.814 40.0024 175.16 40.9094 173.485 41.3821C171.805 41.8557 170.113 41.8801 168.574 41.6064C167.032 41.3334 165.643 40.7434 164.485 39.9851C163.324 39.2267 162.393 38.3047 161.675 37.3677C160.962 36.4204 160.493 35.4491 160.138 34.5814C159.826 33.6947 159.635 32.9077 159.542 32.2564C159.503 31.9311 159.468 31.6417 159.437 31.3894C159.431 31.1401 159.425 30.9281 159.421 30.7524C159.415 30.5887 159.411 30.4594 159.408 30.3621C159.404 30.2744 159.4 30.2294 159.397 30.2294C159.394 30.2294 159.391 30.2737 159.389 30.3617C159.387 30.4594 159.386 30.5884 159.384 30.7531C159.383 30.9294 159.383 31.1431 159.383 31.3937C159.408 31.6481 159.438 31.9397 159.471 32.2677C159.553 32.9254 159.735 33.7221 160.041 34.6217C160.389 35.5021 160.855 36.4897 161.569 37.4551C162.288 38.4101 163.226 39.3514 164.4 40.1281C165.57 40.9047 166.977 41.5117 168.543 41.7964C170.105 42.0811 171.825 42.0634 173.536 41.5867C175.242 41.1114 176.93 40.1917 178.345 38.8264L178.234 38.8497C179.835 39.4674 181.503 40.1114 183.224 40.7754L183.475 40.8724L183.364 40.6161C182.571 38.7854 181.752 36.8964 180.917 34.9704L180.918 35.0674L181.071 34.6784C181.551 33.3914 181.81 32.0231 181.783 30.6771C181.784 29.3337 181.566 28.0034 181.112 26.7911C180.207 24.3674 178.559 22.3757 176.608 21.1551C175.637 20.5444 174.617 20.0544 173.569 19.7884C173.313 19.7007 173.05 19.6504 172.789 19.6031C172.527 19.5584 172.271 19.4901 172.011 19.4661C171.491 19.4244 170.98 19.3527 170.474 19.3817C169.461 19.3624 168.492 19.5517 167.58 19.7734C166.682 20.0531 165.826 20.3701 165.079 20.8214C163.562 21.6771 162.385 22.8021 161.553 23.9377C160.715 25.0754 160.224 26.2164 159.912 27.1651C159.842 27.4054 159.776 27.6331 159.714 27.8467C159.648 28.0594 159.628 28.2691 159.588 28.4577C159.515 28.8377 159.455 29.1591 159.447 29.4247C159.429 29.6797 159.414 29.8791 159.404 30.0247C159.395 30.1601 159.393 30.2291 159.397 30.2294Z" fill="#263238"/>
</svg>
